<svg width="62" height="62" viewBox="0 0 62 62" fill="none" xmlns="http://www.w3.org/2000/svg">
<path d="M24.7625 27.4035H31.35C32.0489 27.4035 32.7191 27.126 33.2132 26.6319C33.7074 26.1378 33.985 25.4678 33.985 24.769C33.985 24.0703 33.7074 23.4002 33.2132 22.9062C32.7191 22.4121 32.0489 22.1346 31.35 22.1346H28.715V20.8173C28.715 20.1186 28.4374 19.4485 27.9432 18.9545C27.4491 18.4604 26.7789 18.1829 26.08 18.1829C25.3812 18.1829 24.7109 18.4604 24.2168 18.9545C23.7226 19.4485 23.445 20.1186 23.445 20.8173V22.2663C21.844 22.5913 20.421 23.4995 19.4521 24.8145C18.4832 26.1296 18.0376 27.7576 18.2017 29.3827C18.3659 31.0077 19.1282 32.5138 20.3405 33.6085C21.5529 34.7033 23.1289 35.3086 24.7625 35.307H27.3975C27.7469 35.307 28.082 35.4457 28.3291 35.6928C28.5762 35.9398 28.715 36.2748 28.715 36.6242C28.715 36.9735 28.5762 37.3086 28.3291 37.5556C28.082 37.8026 27.7469 37.9414 27.3975 37.9414H20.81C20.1112 37.9414 19.4409 38.219 18.9468 38.7131C18.4526 39.2071 18.175 39.8772 18.175 40.5759C18.175 41.2746 18.4526 41.9447 18.9468 42.4388C19.4409 42.9328 20.1112 43.2104 20.81 43.2104H23.445V44.5276C23.445 45.2263 23.7226 45.8964 24.2168 46.3905C24.7109 46.8845 25.3812 47.1621 26.08 47.1621C26.7789 47.1621 27.4491 46.8845 27.9432 46.3905C28.4374 45.8964 28.715 45.2263 28.715 44.5276V43.0787C30.316 42.7536 31.739 41.8455 32.7079 40.5304C33.6768 39.2154 34.1225 37.5873 33.9583 35.9623C33.7941 34.3372 33.0318 32.8312 31.8195 31.7364C30.6071 30.6417 29.0311 30.0364 27.3975 30.038H24.7625C24.4131 30.038 24.078 29.8992 23.8309 29.6522C23.5838 29.4052 23.445 29.0701 23.445 28.7208C23.445 28.3714 23.5838 28.0364 23.8309 27.7893C24.078 27.5423 24.4131 27.4035 24.7625 27.4035ZM55.065 31.3552H47.16V7.64495C47.1618 7.18073 47.041 6.72426 46.8096 6.32177C46.5782 5.91928 46.2446 5.58506 45.8425 5.35295C45.4419 5.12173 44.9875 5 44.525 5C44.0625 5 43.6081 5.12173 43.2075 5.35295L35.3025 9.88425L27.3975 5.35295C26.9969 5.12173 26.5426 5 26.08 5C25.6175 5 25.1631 5.12173 24.7625 5.35295L16.8575 9.88425L8.95252 5.35295C8.55195 5.12173 8.09756 5 7.63502 5C7.17248 5 6.71809 5.12173 6.31752 5.35295C5.91541 5.58506 5.58178 5.91928 5.35042 6.32177C5.11906 6.72426 4.99818 7.18073 5.00002 7.64495V49.7966C5.00002 51.8927 5.83287 53.903 7.31534 55.3851C8.79782 56.8673 10.8085 57.7 12.905 57.7H49.795C51.8915 57.7 53.9022 56.8673 55.3847 55.3851C56.8672 53.903 57.7 51.8927 57.7 49.7966V33.9897C57.7 33.291 57.4224 32.6209 56.9282 32.1269C56.4341 31.6328 55.7639 31.3552 55.065 31.3552ZM12.905 52.431C12.2062 52.431 11.536 52.1535 11.0418 51.6594C10.5476 51.1654 10.27 50.4953 10.27 49.7966V12.2026L15.54 15.2059C15.9467 15.4183 16.3987 15.5292 16.8575 15.5292C17.3163 15.5292 17.7683 15.4183 18.175 15.2059L26.08 10.6746L33.985 15.2059C34.3917 15.4183 34.8437 15.5292 35.3025 15.5292C35.7613 15.5292 36.2133 15.4183 36.62 15.2059L41.89 12.2026V49.7966C41.8971 50.6953 42.0575 51.5862 42.3643 52.431H12.905ZM52.43 49.7966C52.43 50.4953 52.1524 51.1654 51.6582 51.6594C51.1641 52.1535 50.4939 52.431 49.795 52.431C49.0962 52.431 48.4259 52.1535 47.9318 51.6594C47.4376 51.1654 47.16 50.4953 47.16 49.7966V36.6242H52.43V49.7966Z" fill="#2563EB"/>
</svg>
