<svg width="71" height="70" viewBox="0 0 71 70" fill="none" xmlns="http://www.w3.org/2000/svg">
<path d="M70.7175 36.436C70.5068 37.8242 70.3704 39.2124 70.0977 40.5881C68.7963 47.0332 65.7101 52.5363 61.211 57.2834C57.5299 61.1752 53.1918 64.1498 48.2589 66.2445C48.0853 66.3188 47.9242 66.3808 47.6144 66.5172C48.2713 66.8146 48.829 67.0501 49.3744 67.3104C50.1304 67.6574 50.3659 68.2028 50.0808 68.8597C49.8082 69.5042 49.2008 69.7149 48.4696 69.405C47.0318 68.7853 45.6065 68.1532 44.1811 67.5087C43.3383 67.1245 43.1276 66.4428 43.6234 65.6495C44.4662 64.3357 45.3214 63.0219 46.189 61.7205C46.6104 61.076 47.3045 60.9273 47.8498 61.3115C48.3952 61.6833 48.482 62.3031 48.0977 62.96C47.887 63.307 47.6639 63.6417 47.4532 63.9763C47.4904 64.0259 47.5276 64.0755 47.5648 64.125C48.8786 63.4434 50.2296 62.8236 51.5062 62.0676C59.0791 57.5436 64.4955 51.2349 67.1603 42.7448C69.1558 36.3741 68.7591 30.0405 66.5901 23.7814C66.5034 23.5211 66.3918 23.2608 66.3175 23.0005C66.082 22.2569 66.367 21.6495 67.0115 21.4388C67.6065 21.2405 68.2262 21.5504 68.4617 22.2569C68.9203 23.6326 69.4284 24.996 69.7383 26.3966C70.1225 28.169 70.3208 29.9786 70.6059 31.7633C70.6431 31.9864 70.6927 32.2095 70.7299 32.4326V36.436H70.7175Z" fill="#2563EB"/>
<path d="M19.3434 44.3561C18.6865 42.6085 18.1163 41.0716 17.509 39.5347C17.447 39.3859 17.1867 39.2372 17.0132 39.2248C16.4431 39.1876 15.8605 39.2248 15.2904 39.2124C13.7163 39.1752 12.5884 38.0845 12.5636 36.5228C12.5388 35.2834 12.5388 34.0316 12.5636 32.7921C12.6008 31.218 13.7287 30.1273 15.2904 30.1026C15.9597 30.1026 16.629 30.1026 17.2611 30.1026C17.7569 28.8879 18.2031 27.6857 18.736 26.533C19.3557 25.182 19.3929 25.1944 18.327 24.1285C16.7529 22.5544 16.7529 21.1414 18.3518 19.555C19.1079 18.8113 19.8639 18.0676 20.6448 17.3611C21.8222 16.2952 23.3343 16.32 24.487 17.4355C24.9952 17.9313 25.4538 18.4766 25.8008 18.8609C27.536 18.204 29.0729 17.6338 30.6098 17.0265C30.771 16.9645 30.9445 16.729 30.9569 16.5555C30.9941 15.9606 30.9569 15.3657 30.9817 14.7583C31.0188 13.0975 32.0972 12.0068 33.7704 11.982C34.9479 11.9572 36.1129 11.9696 37.2904 11.982C38.8645 12.0068 39.9304 13.0231 40.0172 14.5972C40.0543 15.3533 39.8188 16.2828 40.1783 16.8034C40.5129 17.2868 41.4921 17.3116 42.1738 17.5966C43.0786 17.9809 43.9586 18.4271 45.0989 18.96C45.4583 18.5386 45.8797 17.9933 46.3631 17.5099C47.429 16.4316 49.0279 16.382 50.131 17.4355C51.0605 18.3279 51.9653 19.2451 52.8329 20.1995C53.8617 21.3521 53.7997 22.8766 52.7214 23.9921C52.3248 24.4011 51.891 24.7854 51.5067 25.2192C51.3828 25.3555 51.296 25.6406 51.358 25.7769C52.0025 27.3138 52.6842 28.8383 53.4031 30.4744C53.9856 30.4744 54.7169 30.462 55.4481 30.4744C57.0346 30.5116 58.1377 31.5775 58.1625 33.164C58.1873 34.4034 58.1873 35.6552 58.1625 36.8947C58.1253 38.4316 57.0222 39.5223 55.4853 39.5595C54.8036 39.5842 53.936 39.3488 53.465 39.6834C53.0065 40.0057 52.9693 40.9104 52.6966 41.5302C52.3495 42.3358 52.0025 43.129 51.5687 43.8851C51.3208 44.3189 51.358 44.5668 51.7298 44.8766C52.0769 45.1741 52.3867 45.5212 52.709 45.8434C53.7997 46.9465 53.8741 48.4958 52.8081 49.6237C51.891 50.5904 50.9366 51.52 49.9326 52.4C48.8667 53.342 47.3298 53.2552 46.2887 52.2761C45.8921 51.8918 45.4831 51.52 45.1236 51.0986C44.8386 50.7764 44.6031 50.7516 44.1941 50.9375C42.905 51.52 41.5788 52.053 40.2527 52.5488C39.8932 52.6851 39.7197 52.809 39.7445 53.2057C39.7693 53.7138 39.7569 54.222 39.7445 54.7302C39.7073 56.4778 38.6166 57.5809 36.8814 57.5685C35.5304 57.5685 34.167 57.5437 32.816 57.4445C31.6262 57.3578 30.7214 56.3662 30.647 55.1516C30.6098 54.5318 30.6098 53.9121 30.647 53.2924C30.6718 52.8958 30.5231 52.7471 30.1636 52.6107C28.825 52.0778 27.4865 51.52 26.1727 50.9251C25.8504 50.7764 25.6521 50.7516 25.4042 51.0242C25.0572 51.4209 24.6605 51.7803 24.2887 52.1521C23.2104 53.2057 21.6735 53.2676 20.558 52.2389C19.5788 51.3341 18.6493 50.3673 17.7693 49.3758C16.8025 48.2851 16.8893 46.7358 17.9056 45.6947C18.4138 45.1741 18.9715 44.6907 19.3557 44.3437L19.3434 44.3561ZM35.171 55.3251C35.7039 55.3251 36.2245 55.3251 36.7574 55.3251C37.2408 55.3375 37.4639 55.1516 37.4515 54.631C37.4267 53.7386 37.4391 52.8338 37.4515 51.9414C37.4515 51.173 37.7614 50.8011 38.5174 50.6524C40.5005 50.2558 42.3349 49.4997 44.0577 48.4338C44.789 47.9752 45.2352 48.0372 45.8425 48.6321C46.4622 49.2395 47.0943 49.8592 47.7017 50.4913C48.0487 50.8631 48.3338 50.8631 48.6808 50.5161C49.4245 49.7724 50.1929 49.0288 50.9614 48.3099C51.3456 47.9628 51.3208 47.6778 50.9614 47.3431C50.3293 46.7358 49.7219 46.1161 49.1022 45.4964C48.6312 45.0254 48.5569 44.48 48.9163 43.9347C50.0566 42.2119 50.8622 40.3403 51.3084 38.32C51.4696 37.6011 51.9405 37.2913 52.6594 37.3037C53.5146 37.3037 54.3574 37.2913 55.2127 37.3037C55.7208 37.3161 55.9191 37.1178 55.9067 36.6096C55.8819 35.5685 55.8819 34.5397 55.9067 33.4986C55.9191 32.9161 55.6588 32.7302 55.1135 32.7426C54.1963 32.7673 53.2667 32.7426 52.3495 32.7426C51.6803 32.7426 51.2465 32.4079 51.1225 31.7634C50.7507 29.7183 49.945 27.8592 48.8543 26.0992C48.4329 25.4299 48.4949 24.9961 49.0403 24.4259C49.66 23.7814 50.2921 23.1369 50.949 22.5296C51.3208 22.1826 51.3084 21.8975 50.949 21.5504C50.2177 20.8192 49.4865 20.0755 48.7924 19.3195C48.3957 18.8733 48.0859 18.9352 47.7141 19.3319C47.1439 19.9392 46.549 20.5093 45.9541 21.0919C45.3839 21.6496 44.9501 21.7116 44.2932 21.2778C42.5952 20.1747 40.7608 19.4062 38.8025 18.9352C37.9721 18.7369 37.7118 18.3899 37.7118 17.5099C37.7118 16.6299 37.687 15.7623 37.7118 14.8823C37.7242 14.4113 37.5507 14.2254 37.0673 14.2378C36.0262 14.2626 34.9974 14.2626 33.9563 14.2378C33.411 14.2378 33.225 14.4485 33.2498 14.9814C33.287 15.8986 33.2498 16.8282 33.2498 17.7454C33.2498 18.4395 32.9028 18.8981 32.2211 19.0096C30.2008 19.369 28.3541 20.1623 26.6188 21.2406C25.8876 21.6992 25.4662 21.6372 24.8465 21.0175C24.2391 20.4226 23.6318 19.8276 23.0369 19.2079C22.6774 18.8361 22.3924 18.7865 21.9957 19.1707C21.2521 19.9268 20.4836 20.6581 19.7152 21.3769C19.3557 21.7116 19.3805 21.9719 19.7152 22.2941C20.2977 22.8519 20.8555 23.422 21.4256 24.0045C22.1197 24.711 22.1693 25.1324 21.6487 25.9504C20.6076 27.5741 19.8515 29.3093 19.4301 31.1933C19.2194 32.0981 18.8848 32.3583 17.9304 32.3707C17.1 32.3707 16.2696 32.3831 15.4391 32.3707C14.9681 32.3707 14.7698 32.5566 14.7822 33.0276C14.7946 34.0811 14.807 35.1471 14.7822 36.2006C14.7698 36.7583 15.0177 36.9195 15.5383 36.9071C16.4183 36.8823 17.2859 36.8823 18.1659 36.9071C18.9591 36.9195 19.3186 37.2045 19.4673 37.9606C19.8639 39.9685 20.6448 41.8152 21.7355 43.5504C22.1569 44.2321 22.0949 44.6907 21.5124 45.2733C20.9174 45.8806 20.3225 46.5003 19.7028 47.0704C19.2938 47.4547 19.2566 47.7521 19.678 48.1488C20.4217 48.8676 21.1405 49.6113 21.847 50.3797C22.1941 50.7516 22.4791 50.7392 22.8262 50.3797C23.3963 49.7848 23.9912 49.2023 24.5862 48.6197C25.2059 48.0124 25.6645 47.9504 26.3586 48.409C28.0318 49.4873 29.8414 50.2558 31.7873 50.702C32.5929 50.8879 32.8532 51.2473 32.8656 52.0654C32.8656 52.9206 32.878 53.7634 32.8656 54.6186C32.8532 55.1268 33.0639 55.3251 33.5597 55.3127C34.0926 55.2879 34.6132 55.3127 35.1462 55.3127L35.171 55.3251Z" fill="#2563EB"/>
<path d="M3.40365 23.5336C2.78394 23.8434 2.26337 24.1161 1.71802 24.364C1.04872 24.6615 0.429007 24.4631 0.131542 23.8806C-0.165923 23.2981 0.0447813 22.6784 0.726471 22.3313C2.15182 21.5876 3.58957 20.8688 5.03971 20.1623C5.75858 19.8153 6.35351 20.026 6.70056 20.7572C7.40703 22.2569 8.07633 23.7691 8.74563 25.2812C9.05549 25.9876 8.84478 26.5578 8.21267 26.8429C7.59295 27.1279 7.01042 26.9048 6.67577 26.2231C6.35351 25.5662 6.06844 24.8969 5.58506 24.2153C4.97774 26.186 4.30844 28.1319 3.77549 30.1274C2.62281 34.391 3.06901 38.6423 4.28365 42.7944C7.56816 54.0609 14.9304 61.4603 26.011 65.1786C29.3079 66.2817 32.7287 66.7155 36.1992 66.6784C36.5214 66.6784 36.8437 66.6536 37.1659 66.6784C37.8724 66.7031 38.3062 67.1369 38.3186 67.7938C38.3186 68.4384 37.8848 68.9341 37.1907 68.9217C35.3563 68.8846 33.4972 68.9217 31.6752 68.7234C25.007 67.955 19.0082 65.4637 13.7901 61.2248C6.84929 55.5854 2.68478 48.3471 1.20985 39.5099C0.342246 34.2919 1.25943 29.3589 3.11858 24.5127C3.20534 24.2772 3.29211 24.0417 3.37887 23.7938C3.39126 23.7567 3.39126 23.7071 3.41605 23.5212L3.40365 23.5336Z" fill="#2563EB"/>
<path d="M64.0991 13.3824C64.0991 12.8247 64.0867 12.4157 64.0991 12.019C64.1239 11.3002 64.6073 10.792 65.2394 10.792C65.8467 10.792 66.3549 11.2506 66.3673 11.9447C66.4045 13.5807 66.4169 15.2168 66.4045 16.8405C66.4045 17.5221 65.8715 18.0179 65.1279 18.0179C63.4298 18.0427 61.7194 18.0427 60.0214 18.0179C59.2281 18.0179 58.7695 17.5221 58.7819 16.8281C58.8067 16.1712 59.2653 15.7374 60.0214 15.725C60.9633 15.7126 61.9053 15.725 62.996 15.725C62.7481 15.4027 62.587 15.1672 62.4011 14.9565C56.3031 7.91651 48.6557 3.5537 39.4095 2.53736C27.858 1.26074 18.178 5.22694 10.5307 14.0269C10.3448 14.2376 10.1836 14.4607 10.0101 14.6714C9.50194 15.254 8.82025 15.3531 8.31208 14.9317C7.79151 14.4979 7.72954 13.8286 8.2625 13.2213C9.46475 11.8703 10.6422 10.4698 11.9684 9.23032C17.831 3.86356 24.7346 0.851725 32.6174 0.145246C40.4631 -0.573627 47.7014 1.40947 54.4563 5.33849C57.9391 7.37116 61.0129 9.91201 63.6901 12.9362C63.7893 13.0478 63.9008 13.1593 64.1115 13.3824H64.0991Z" fill="#2563EB"/>
<path d="M39.1988 30.1645C39.1244 29.4828 38.8022 28.9623 38.2568 28.5781C37.6991 28.2062 37.005 28.0203 36.1622 28.0203C35.5548 28.0203 35.0343 28.1195 34.6005 28.3054C34.1667 28.4913 33.8196 28.7516 33.5841 29.0738C33.3487 29.3961 33.2247 29.7679 33.2247 30.1893C33.2247 30.5364 33.3115 30.8338 33.4726 31.0941C33.6337 31.342 33.8568 31.5651 34.1295 31.7262C34.4022 31.8998 34.6872 32.0361 34.9971 32.1476C35.307 32.2592 35.6044 32.3459 35.8895 32.4203L37.3272 32.7921C37.7982 32.9037 38.2816 33.0648 38.765 33.2631C39.2484 33.4614 39.7194 33.7217 40.1284 34.0316C40.5374 34.3414 40.8844 34.7505 41.1447 35.2214C41.405 35.6924 41.5413 36.2626 41.5413 36.9195C41.5413 37.7499 41.3306 38.4936 40.8968 39.1381C40.463 39.7826 39.8557 40.2907 39.0377 40.6626C38.232 41.0344 37.2529 41.2203 36.1002 41.2203C34.9475 41.2203 34.0551 41.0468 33.2495 40.6998C32.4439 40.3527 31.8117 39.8569 31.3656 39.2124C30.907 38.5679 30.6591 37.8119 30.6095 36.9195H32.8281C32.8653 37.4524 33.0388 37.8862 33.3487 38.2457C33.6461 38.5927 34.0427 38.853 34.5137 39.0265C34.9847 39.2 35.5177 39.2868 36.0754 39.2868C36.7075 39.2868 37.2653 39.1876 37.7487 38.9893C38.232 38.791 38.6287 38.5183 38.9013 38.1589C39.1864 37.7995 39.3227 37.3905 39.3227 36.9071C39.3227 36.4733 39.1988 36.1138 38.9509 35.8412C38.703 35.5685 38.3684 35.333 37.9594 35.1471C37.5379 34.9612 37.067 34.8 36.5464 34.6637L34.8112 34.1927C33.6337 33.8705 32.7041 33.3995 32.0225 32.7798C31.3408 32.16 30.9937 31.342 30.9937 30.3133C30.9937 29.4705 31.2292 28.7268 31.6878 28.0947C32.1464 27.4626 32.7661 26.9668 33.547 26.6197C34.3278 26.2727 35.2202 26.0868 36.1994 26.0868C37.1785 26.0868 38.0709 26.2603 38.8394 26.6074C39.6078 26.9544 40.2027 27.4378 40.6489 28.0451C41.0827 28.6524 41.3182 29.3589 41.343 30.1398H39.2112L39.1988 30.1645ZM35.5177 42.8316V24.4755H36.6951V42.8316H35.5177Z" fill="#2563EB"/>
</svg>
