<svg width="30" height="30" viewBox="0 0 30 30" fill="none" xmlns="http://www.w3.org/2000/svg">
<rect x="5.25" y="5.25" width="20" height="21.25" rx="7" fill="#A5A5A5"/>
<path fill-rule="evenodd" clip-rule="evenodd" d="M15.25 4C12.1945 4 11.812 4.01275 10.612 4.0675C9.41425 4.12225 8.596 4.31275 7.8805 4.591C7.1305 4.873 6.45025 5.3155 5.88775 5.8885C5.31567 6.45035 4.87289 7.13012 4.59025 7.8805C4.3135 8.596 4.12225 9.415 4.0675 10.6128C4.0135 11.812 4 12.1938 4 15.25C4 18.3062 4.01275 18.688 4.0675 19.888C4.12225 21.0858 4.31275 21.904 4.591 22.6195C4.873 23.3695 5.3155 24.0497 5.8885 24.6122C6.45037 25.1843 7.13013 25.6271 7.8805 25.9097C8.596 26.1873 9.41425 26.3778 10.612 26.4325C11.812 26.4872 12.1945 26.5 15.25 26.5C18.3055 26.5 18.688 26.4872 19.888 26.4325C21.0858 26.3778 21.904 26.1873 22.6195 25.909C23.3695 25.627 24.0497 25.1845 24.6122 24.6115C25.1843 24.0497 25.6271 23.3699 25.9097 22.6195C26.1873 21.904 26.3778 21.0858 26.4325 19.888C26.4872 18.688 26.5 18.3055 26.5 15.25C26.5 12.1945 26.4872 11.812 26.4325 10.612C26.3778 9.41425 26.1873 8.596 25.909 7.8805C25.6266 7.1298 25.1838 6.44974 24.6115 5.88775C24.0497 5.31567 23.3699 4.87289 22.6195 4.59025C21.904 4.3135 21.085 4.12225 19.8873 4.0675C18.688 4.0135 18.3062 4 15.25 4ZM15.25 6.02725C18.2537 6.02725 18.61 6.0385 19.7965 6.0925C20.893 6.14275 21.4885 6.325 21.8853 6.48025C22.4102 6.6835 22.7852 6.928 23.179 7.321C23.5728 7.71475 23.8165 8.08975 24.0198 8.61475C24.1742 9.0115 24.3573 9.607 24.4075 10.7035C24.4615 11.89 24.4728 12.2463 24.4728 15.25C24.4728 18.2537 24.4615 18.61 24.4075 19.7965C24.3573 20.893 24.175 21.4885 24.0198 21.8853C23.8397 22.3739 23.5524 22.816 23.179 23.179C22.8161 23.5525 22.374 23.8398 21.8853 24.0198C21.4885 24.1742 20.893 24.3573 19.7965 24.4075C18.61 24.4615 18.2545 24.4728 15.25 24.4728C12.2455 24.4728 11.89 24.4615 10.7035 24.4075C9.607 24.3573 9.0115 24.175 8.61475 24.0198C8.12609 23.8397 7.684 23.5524 7.321 23.179C6.94763 22.816 6.66035 22.3739 6.48025 21.8853C6.32575 21.4885 6.14275 20.893 6.0925 19.7965C6.0385 18.61 6.02725 18.2537 6.02725 15.25C6.02725 12.2463 6.0385 11.89 6.0925 10.7035C6.14275 9.607 6.325 9.0115 6.48025 8.61475C6.6835 8.08975 6.928 7.71475 7.321 7.321C7.68396 6.94753 8.12606 6.66023 8.61475 6.48025C9.0115 6.32575 9.607 6.14275 10.7035 6.0925C11.89 6.0385 12.2463 6.02725 15.25 6.02725Z" fill="#A5A5A5"/>
<path fill-rule="evenodd" clip-rule="evenodd" d="M15.25 19.0037C14.7571 19.0037 14.269 18.9066 13.8135 18.718C13.3581 18.5294 12.9443 18.2529 12.5957 17.9043C12.2472 17.5557 11.9707 17.1419 11.782 16.6865C11.5934 16.2311 11.4963 15.7429 11.4963 15.25C11.4963 14.757 11.5934 14.2689 11.782 13.8135C11.9707 13.3581 12.2472 12.9442 12.5957 12.5957C12.9443 12.2471 13.3581 11.9706 13.8135 11.782C14.269 11.5933 14.7571 11.4962 15.25 11.4962C16.2456 11.4962 17.2004 11.8917 17.9043 12.5957C18.6083 13.2996 19.0038 14.2544 19.0038 15.25C19.0038 16.2455 18.6083 17.2003 17.9043 17.9043C17.2004 18.6082 16.2456 19.0037 15.25 19.0037ZM15.25 9.46748C13.7164 9.46748 12.2456 10.0767 11.1612 11.1611C10.0768 12.2456 9.46753 13.7164 9.46753 15.25C9.46753 16.7836 10.0768 18.2544 11.1612 19.3388C12.2456 20.4233 13.7164 21.0325 15.25 21.0325C16.7836 21.0325 18.2544 20.4233 19.3389 19.3388C20.4233 18.2544 21.0325 16.7836 21.0325 15.25C21.0325 13.7164 20.4233 12.2456 19.3389 11.1611C18.2544 10.0767 16.7836 9.46748 15.25 9.46748ZM22.7148 9.36248C22.7148 9.725 22.5708 10.0727 22.3144 10.329C22.0581 10.5853 21.7104 10.7294 21.3479 10.7294C20.9854 10.7294 20.6377 10.5853 20.3814 10.329C20.125 10.0727 19.981 9.725 19.981 9.36248C19.981 8.99996 20.125 8.65229 20.3814 8.39595C20.6377 8.13962 20.9854 7.99561 21.3479 7.99561C21.7104 7.99561 22.0581 8.13962 22.3144 8.39595C22.5708 8.65229 22.7148 8.99996 22.7148 9.36248Z" fill="#100535"/>
</svg>
