<svg width="264" height="58" viewBox="0 0 264 58" fill="none" xmlns="http://www.w3.org/2000/svg">
<path d="M70.8415 38.8362V19.1643L95.9423 4.65771L104.9 9.82785L96.8335 14.4997L104.912 19.1643V38.8362L95.9566 44.0087V24.3368L87.878 19.6722L79.797 24.3368V33.6637L88.1703 38.5271V48.8387L70.8415 38.8362Z" fill="white"/>
<path d="M5.7068 32.3672C5.74575 32.8785 5.91034 33.3723 6.18596 33.8047C6.3068 33.9683 6.4664 34.0993 6.65041 34.1858C6.83442 34.2724 7.03707 34.3118 7.24012 34.3007C7.7746 34.2898 8.30156 34.1725 8.7902 33.9557C9.224 33.791 9.63281 33.5669 10.0049 33.2896L11.0758 35.7693C10.4022 36.5566 9.57569 37.1988 8.64645 37.6572C7.75072 38.1332 6.75461 38.3894 5.74034 38.4047C4.32522 38.4047 3.23593 38.0621 2.47247 37.3769C1.7073 36.6899 1.17408 35.7826 0.946348 34.7798C0.677348 33.5972 0.549479 32.3869 0.565416 31.1741L0.548645 13.0619H5.57983V29.8325C5.56878 30.6792 5.61119 31.5258 5.7068 32.3672ZM16.9958 33.5987C17.6794 34.1306 18.6537 34.3965 19.9187 34.3965C20.4378 34.3965 20.9281 34.3733 21.3897 34.327C22.4364 34.1901 23.4684 33.9583 24.4731 33.6346C25.5608 33.2912 26.4472 32.9838 27.1324 32.7122L27.8919 35.7693C27.3213 36.2265 26.692 36.6052 26.0208 36.8953C25.0406 37.3514 24.0204 37.7163 22.9733 37.9854C21.8432 38.2926 20.6777 38.4504 19.5066 38.455C17.3791 38.455 15.6805 38.1004 14.4107 37.3912C13.1406 36.6823 12.1665 35.5416 11.6652 34.1761C11.1013 32.7386 10.8202 30.8803 10.8218 28.601C10.8218 26.4975 11.1053 24.7758 11.6723 23.4357C12.2063 22.1312 13.1908 21.0617 14.4467 20.4218C15.7244 19.7558 17.435 19.4219 19.5785 19.4203C21.9982 19.4203 23.9293 19.9554 25.3715 21.0255C26.8138 22.0957 27.594 23.7727 27.7122 26.0567C27.7362 26.3298 27.7482 26.7251 27.7482 27.2546C27.7482 27.8919 27.7242 28.4837 27.6763 29.0251C27.6284 29.5666 27.5948 29.9116 27.5709 30.0529L15.98 30.7285C15.972 32.1101 16.3106 33.0668 16.9958 33.5987ZM22.844 26.1717C22.844 24.2822 21.7331 23.3367 19.5114 23.3351C18.4109 23.3351 17.566 23.6306 16.9766 24.2215C16.3873 24.8125 16.0503 25.7101 15.9656 26.9144L22.8248 26.6509C22.8389 26.4964 22.8453 26.3412 22.844 26.1861V26.1717ZM35.1344 29.8588C35.1229 30.7023 35.1645 31.5457 35.259 32.384C35.3007 32.8948 35.4651 33.3879 35.7382 33.8215C35.856 33.986 36.0136 34.118 36.1963 34.2052C36.3789 34.2923 36.5807 34.3318 36.7827 34.3198C37.3274 34.3084 37.8643 34.1878 38.3616 33.9652C38.7907 33.7976 39.194 33.5702 39.5595 33.2896L40.6208 35.7908C39.953 36.5867 39.1306 37.2387 38.2034 37.7075C37.3117 38.187 36.3169 38.4427 35.3045 38.4526C33.3783 38.4526 32.0319 37.8321 31.2652 36.591C30.4985 35.35 30.1144 33.7728 30.1128 31.8593V31.3802L30.0937 23.5986H28.1459V19.8468H30.0937V15.5583L35.1248 14.394V19.8468H38.9174L38.4382 23.6034H35.1176L35.1344 29.7175V29.8588ZM44.7416 33.7951C45.8778 34.1391 47.0551 34.3292 48.2418 34.3605C49.2465 34.3605 50.0203 34.2336 50.5634 33.9796C50.8154 33.8763 51.0291 33.6972 51.1751 33.4672C51.321 33.2372 51.3919 32.9675 51.3779 32.6955C51.3756 32.4956 51.3234 32.2995 51.2259 32.125C51.1283 31.9505 50.9887 31.8032 50.8197 31.6964C50.3988 31.3997 49.9317 31.1747 49.4373 31.0304C48.8887 30.8603 48.1364 30.6614 47.1781 30.4386L46.433 30.2613C44.9332 29.8716 43.7697 29.204 42.9423 28.2584C42.1162 27.3129 41.6736 26.0926 41.7013 24.8372C41.6978 24.4632 41.7275 24.0896 41.79 23.7208C41.9038 23.0153 42.1886 22.3484 42.6196 21.7783C43.0506 21.2082 43.6146 20.7524 44.2624 20.4505C45.6408 19.7605 47.357 19.4148 49.411 19.4132C51.5821 19.3946 53.7234 19.9192 55.6401 20.9393L55.1417 24.8013C54.5516 24.5307 53.9382 24.3142 53.309 24.1544C52.5471 23.9484 51.7685 23.7735 50.9778 23.6322C50.3545 23.5562 49.7275 23.5146 49.0995 23.5076C47.4672 23.5076 46.6518 23.9268 46.6534 24.7654C46.6501 25.0391 46.725 25.308 46.8693 25.5406C47.0136 25.7731 47.2213 25.9597 47.468 26.0783C48.011 26.3849 48.856 26.6445 50.0028 26.8569C52.0248 27.2706 53.626 27.9678 54.8063 28.9484C55.3674 29.3873 55.8194 29.95 56.127 30.5926C56.4346 31.2351 56.5893 31.9401 56.5792 32.6523C56.5792 34.0579 56.2159 35.1919 55.4891 36.0544C54.7487 36.9261 53.7731 37.5665 52.6789 37.8991C51.4627 38.2758 50.1953 38.4609 48.9222 38.4478C48.3122 38.4483 47.7026 38.4131 47.0966 38.3424C44.7711 38.0804 42.8042 37.4599 41.1958 36.4808L41.639 32.4751C42.353 32.9766 43.3871 33.4166 44.7416 33.7951ZM164.048 34.3318C163.844 34.3425 163.642 34.3026 163.458 34.2156C163.274 34.1286 163.114 33.9973 162.993 33.8335C162.719 33.4004 162.555 32.907 162.514 32.396C162.422 31.5576 162.381 30.7143 162.392 29.8708V20.1127L157.375 19.6336V21.1765C156.78 20.6592 156.103 20.2432 155.372 19.945C154.61 19.5978 153.783 19.4134 152.945 19.4036C150.406 19.4036 148.589 20.2485 147.495 21.9383C146.401 23.6282 145.852 25.9225 145.847 28.8215C145.847 31.3371 146.293 33.5731 147.186 35.5297C148.079 37.4863 149.771 38.4662 152.263 38.4694C152.545 38.4694 152.759 38.4693 152.9 38.4526C153.933 38.4261 154.937 38.1098 155.799 37.5398C156.646 36.9623 157.367 36.218 157.917 35.3524C158.659 37.4192 160.201 38.4526 162.541 38.4526C163.555 38.4421 164.552 38.1865 165.447 37.7075C165.812 37.5193 166.163 37.3039 166.496 37.063L165.325 34.0922C164.916 34.2442 164.484 34.3252 164.048 34.3318ZM157.366 32.0989C156.992 32.7081 156.49 33.2282 155.895 33.6226C155.34 34.016 154.679 34.2315 154 34.2408L153.76 34.224C152.802 34.1186 152.083 33.5811 151.604 32.6116C151.097 31.5115 150.84 30.3129 150.852 29.1018C150.856 28.2787 150.954 27.4589 151.144 26.6581C151.319 25.8617 151.674 25.1159 152.181 24.4779C152.422 24.1763 152.73 23.9356 153.081 23.7754C153.432 23.6151 153.815 23.5398 154.201 23.5555C155.394 23.5555 156.451 24.0458 157.373 25.0265L157.366 32.0989ZM126.671 29.8588C126.659 30.7023 126.701 31.5457 126.795 32.384C126.838 32.8945 127.002 33.3874 127.274 33.8215C127.393 33.9864 127.551 34.1186 127.734 34.2058C127.917 34.2929 128.119 34.3322 128.321 34.3198C128.865 34.3081 129.401 34.1875 129.898 33.9652C130.328 33.7988 130.731 33.5713 131.096 33.2896L132.16 35.7908C131.491 36.5867 130.668 37.2388 129.74 37.7075C128.848 38.1883 127.852 38.4448 126.838 38.455C124.912 38.455 123.565 37.8345 122.797 36.5934C122.028 35.3524 121.644 33.7752 121.644 31.8617V31.3826L121.628 23.601H119.677V19.8468H121.628V15.5583L126.659 14.394V19.8468H130.451L129.972 23.6034H126.652L126.671 29.7175V29.8588ZM144.17 23.3471C143.705 23.2381 143.229 23.1874 142.751 23.1961C142.01 23.2011 141.28 23.3835 140.624 23.728C139.953 24.0605 139.368 24.5425 138.913 25.1367C138.492 25.6632 138.259 26.3148 138.25 26.9887V38.0094H133.252V20.096L138.25 19.6168V22.2402C138.842 21.3487 139.649 20.6213 140.597 20.1253C141.546 19.6294 142.604 19.3812 143.674 19.4036C144.204 19.3989 144.731 19.4708 145.241 19.6168C145.565 19.6964 145.878 19.8155 146.173 19.9714L145.499 23.7903C145.065 23.6183 144.621 23.4703 144.17 23.3471ZM201.374 20.1127L206.379 19.6168V21.8736C206.633 21.5047 206.937 21.174 207.285 20.8914C207.788 20.4653 208.354 20.1187 208.962 19.8636C209.66 19.5565 210.415 19.4021 211.178 19.4108C213.871 19.4108 215.669 20.3691 216.573 22.2857C217.477 24.2024 217.929 26.4656 217.929 29.0754C217.929 31.9504 217.38 34.236 216.281 35.9322C215.182 37.6284 213.368 38.4733 210.84 38.467C210.003 38.4677 209.171 38.3334 208.377 38.0692C207.66 37.8489 206.988 37.5033 206.391 37.0486V44.847L201.393 44.5283L201.374 20.1127ZM206.885 33.7329C207.279 33.8985 207.685 34.0346 208.099 34.1401C208.579 34.2657 209.074 34.3285 209.57 34.327C209.954 34.3432 210.336 34.2698 210.687 34.1126C211.038 33.9554 211.347 33.7187 211.59 33.4214C212.098 32.794 212.45 32.055 212.618 31.2652C212.806 30.4334 212.901 29.5832 212.9 28.7304C212.919 27.7981 212.782 26.8692 212.493 25.9824C212.284 25.303 211.907 24.6874 211.396 24.1928C210.985 23.8006 210.44 23.5788 209.872 23.5723C209.072 23.5363 208.285 23.7831 207.649 24.2694C207.152 24.653 206.721 25.1141 206.372 25.635V33.4933C206.534 33.585 206.703 33.665 206.877 33.7329H206.885ZM231.667 19.957C232.877 20.3276 233.926 21.1605 234.812 22.4558C235.699 23.7512 236.141 25.6678 236.14 28.2057V29.6768C236.14 32.0294 235.747 33.8494 234.961 35.1368C234.282 36.3391 233.209 37.2701 231.923 37.7722C230.538 38.2564 229.078 38.49 227.611 38.4622C226.241 38.4785 224.876 38.2903 223.562 37.9039C222.349 37.5334 221.301 36.7004 220.416 35.4051C219.531 34.1098 219.088 32.1931 219.086 29.6552V28.2009C219.086 25.8499 219.479 24.0275 220.265 22.7337C221.051 21.44 222.064 20.5615 223.305 20.0984C224.69 19.612 226.151 19.3775 227.618 19.406C228.987 19.3876 230.352 19.5733 231.667 19.957ZM224.851 32.8512C225.371 33.8319 226.293 34.3222 227.615 34.3222C229.021 34.3222 229.963 33.8199 230.442 32.8153C230.922 31.8106 231.161 30.5169 231.161 28.9341C231.161 27.2905 230.901 25.9816 230.38 25.0073C229.859 24.0331 228.938 23.5459 227.615 23.5459C226.208 23.5459 225.266 24.045 224.788 25.0433C224.311 26.0415 224.071 27.3321 224.07 28.9149C224.071 30.5616 224.332 31.8753 224.851 32.856V32.8512ZM248.337 23.3471C247.872 23.2381 247.396 23.1874 246.918 23.1961C246.178 23.2014 245.449 23.3837 244.793 23.728C244.123 24.0605 243.538 24.5425 243.083 25.1367C242.661 25.6625 242.427 26.3145 242.419 26.9887V38.0094H237.421V20.096L242.419 19.6168V22.2402C243.011 21.3491 243.818 20.6218 244.766 20.1259C245.714 19.63 246.771 19.3816 247.841 19.4036C248.371 19.3989 248.9 19.4707 249.41 19.6168C249.733 19.6957 250.046 19.8149 250.34 19.9714L249.666 23.7807C249.232 23.6116 248.788 23.4669 248.337 23.3471ZM258.258 29.8588C258.246 30.7023 258.288 31.5457 258.382 32.384C258.424 32.8948 258.588 33.3879 258.861 33.8215C258.979 33.986 259.137 34.118 259.32 34.2052C259.502 34.2923 259.704 34.3318 259.906 34.3198C260.451 34.3084 260.988 34.1878 261.485 33.9652C261.914 33.7976 262.317 33.5702 262.683 33.2896L263.744 35.7908C263.076 36.5867 262.254 37.2387 261.327 37.7075C260.435 38.187 259.44 38.4427 258.428 38.4526C256.502 38.4526 255.155 37.8321 254.388 36.591C253.622 35.35 253.238 33.7728 253.236 31.8593V31.3802L253.217 23.5986H251.269V19.8468H253.217V15.5583L258.248 14.394V19.8468H262.041L261.561 23.6034H258.229L258.246 29.7175L258.258 29.8588ZM183.219 38.455C181.293 38.455 179.972 37.8432 179.256 36.6198C178.541 35.3963 178.184 33.8103 178.185 31.8617V28.1938C178.185 26.5966 177.966 25.421 177.529 24.6671C177.091 23.9133 176.326 23.5355 175.234 23.5339C174.668 23.5279 174.108 23.6491 173.595 23.8885C173.145 24.0907 172.724 24.3526 172.344 24.6671C172.157 24.8026 171.99 24.964 171.848 25.1463V38.0118H166.86V20.1127L171.858 19.6336V21.8497C171.858 21.7658 172.129 21.5167 172.673 21.095C173.293 20.6318 173.965 20.2427 174.675 19.9354C175.461 19.582 176.313 19.4007 177.174 19.4036C179.326 19.4036 180.868 20.0329 181.801 21.2915C182.733 22.5501 183.2 24.402 183.2 26.8473V32.8536C183.197 33.6591 183.244 34.464 183.341 35.2638C183.382 35.7163 183.548 36.1485 183.82 36.512L183.219 38.455ZM188.106 33.7951C189.243 34.1391 190.42 34.3292 191.607 34.3605C192.61 34.3605 193.383 34.2336 193.928 33.9796C194.18 33.8763 194.394 33.6972 194.54 33.4672C194.686 33.2372 194.757 32.9675 194.743 32.6955C194.74 32.4956 194.688 32.2995 194.591 32.125C194.493 31.9505 194.353 31.8032 194.184 31.6964C193.763 31.3997 193.296 31.1747 192.802 31.0304C192.253 30.8603 191.501 30.6614 190.543 30.4386L189.798 30.2613C188.298 29.8716 187.134 29.204 186.307 28.2584C185.479 27.3161 185.033 26.0985 185.056 24.8444C185.053 24.4704 185.083 24.0968 185.145 23.728C185.259 23.0225 185.544 22.3556 185.975 21.7855C186.406 21.2154 186.97 20.7596 187.618 20.4577C188.996 19.7677 190.712 19.4219 192.766 19.4203C194.937 19.4018 197.079 19.9264 198.995 20.9465L198.497 24.8085C197.907 24.5379 197.293 24.3213 196.664 24.1616C195.902 23.9556 195.124 23.7807 194.333 23.6393C193.71 23.5633 193.083 23.5218 192.455 23.5148C190.824 23.5148 190.009 23.934 190.009 24.7726C190.005 25.0462 190.08 25.3152 190.224 25.5478C190.369 25.7803 190.576 25.9669 190.823 26.0855C191.366 26.3921 192.211 26.6517 193.358 26.8641C195.38 27.2778 196.981 27.9749 198.161 28.9556C198.723 29.3945 199.175 29.9572 199.482 30.5997C199.79 31.2423 199.944 31.9473 199.934 32.6595C199.934 34.0651 199.571 35.1991 198.844 36.0616C198.104 36.9333 197.128 37.5736 196.034 37.9063C194.818 38.283 193.55 38.4681 192.277 38.455C191.667 38.4555 191.058 38.4203 190.452 38.3496C188.133 38.0892 186.166 37.4687 184.553 36.488L184.997 32.4822C185.715 32.979 186.752 33.4166 188.106 33.7951Z" fill="#101820"/>
<path d="M96.2491 4.83233L87.8782 0L78.985 5.1342L72.2456 9.02498L62.763 14.4994V16.9167L71.1339 21.7491V19.3341L96.2491 4.83233Z" fill="#FF671F"/>
<path d="M87.8782 48.3331L71.1339 38.6661V19.3344L62.763 14.4996V43.5008L87.8782 58.0002L89.5313 57.0227V47.358L87.8782 48.3331Z" fill="#E04E39"/>
<path d="M87.8774 19.3339L79.504 24.1663V26.1476L87.8774 30.9799L96.2483 26.1476V24.1663L87.8774 19.3339ZM104.619 9.66687L96.2483 14.4992L104.619 19.3339V21.3129L112.99 16.4805V14.4992L104.619 9.66687Z" fill="#FF671F"/>
<path d="M87.8774 29.001L79.504 24.1663V33.8333L87.8774 38.6944L89.5975 37.6834V28.0043L87.8774 29.001Z" fill="#E04E39"/>
<path d="M87.8776 29.0014V58.0002L112.99 43.5008V14.4996L104.619 19.3344V38.6661L96.2486 43.5008V24.1667L87.8776 29.0014Z" fill="#A72B2A"/>
</svg>
