<svg width="145" height="38" viewBox="0 0 145 38" fill="none" xmlns="http://www.w3.org/2000/svg">
<g clip-path="url(#clip0_0_984)">
<path d="M27.5733 10.4758H9.92199L18.7477 1.53235H36.5391L27.5733 10.4758Z" fill="#00D273"/>
<path d="M18.7478 37.0266H0.956367L9.92211 28.0831H27.5735L18.7478 37.0266Z" fill="#FF6429"/>
<path d="M0.956367 10.4758V37.0266L9.92211 28.0832V1.53235L0.956367 10.4758Z" fill="#14B4EF"/>
<path d="M27.5735 10.4758V37.0266L36.5392 28.0832V1.53235L27.5735 10.4758Z" fill="#B066FF"/>
<path d="M45.3652 6.00427H49.2877V28.7821H62.3161V32.6948H45.3652V6.00427Z" fill="black"/>
<path d="M73.5235 32.9744C72.1226 32.9744 70.7217 32.6949 69.4609 32.136C68.2001 31.577 67.0794 30.8783 66.2389 29.9001C65.2582 28.9219 64.5578 27.9437 63.9974 26.6861C63.4371 25.4284 63.1569 24.1707 63.1569 22.6336C63.1569 21.2362 63.4371 19.8387 63.9974 18.5811C64.5578 17.3234 65.2582 16.2055 66.2389 15.367C67.2195 14.3888 68.2001 13.6901 69.4609 13.1312C70.7217 12.5722 71.9825 12.2927 73.5235 12.2927C74.9244 12.2927 76.3253 12.5722 77.5861 13.1312C78.847 13.6901 79.9677 14.3888 80.8082 15.367C81.7888 16.3452 82.4893 17.3234 83.0497 18.5811C83.61 19.8387 83.8902 21.0964 83.8902 22.6336C83.8902 24.031 83.61 25.4284 83.0497 26.6861C82.4893 27.9437 81.7888 29.0617 80.8082 29.9001C79.8276 30.8783 78.847 31.577 77.5861 32.136C76.1852 32.6949 74.9244 32.9744 73.5235 32.9744ZM73.5235 29.3411C74.3641 29.3411 75.2046 29.2014 76.0452 28.7822C76.7456 28.5027 77.4461 27.9437 78.0064 27.3848C78.5668 26.8258 78.987 26.1271 79.4073 25.2887C79.8276 24.4502 79.9677 23.6118 79.9677 22.7733C79.9677 21.9349 79.8276 20.9567 79.4073 20.258C79.1271 19.4195 78.5668 18.7208 78.0064 18.1619C77.4461 17.6029 76.7456 17.0439 76.0452 16.7644C75.2046 16.485 74.5042 16.2055 73.5235 16.2055C72.683 16.2055 71.8425 16.3452 71.0019 16.7644C70.3015 17.0439 69.601 17.6029 69.0407 18.1619C68.4803 18.7208 68.06 19.4195 67.6398 20.258C67.3596 21.0964 67.2195 21.9349 67.2195 22.7733C67.2195 23.7515 67.3596 24.5899 67.6398 25.2887C67.9199 26.1271 68.3402 26.8258 69.0407 27.3848C69.601 27.9437 70.3015 28.5027 71.0019 28.7822C71.7024 29.0617 72.5429 29.3411 73.5235 29.3411Z" fill="black"/>
<path d="M96.0774 32.9744C94.6765 32.9744 93.2756 32.6949 92.0148 32.136C90.754 31.577 89.6333 30.8783 88.7928 29.9001C87.8121 28.9219 87.1117 27.9437 86.5513 26.6861C85.991 25.4284 85.7108 24.1707 85.7108 22.6336C85.7108 21.2362 85.991 19.8387 86.5513 18.5811C87.1117 17.3234 87.8121 16.2055 88.7928 15.367C89.7734 14.3888 90.754 13.6901 92.0148 13.1312C93.2756 12.5722 94.6765 12.2927 96.0774 12.2927C97.1982 12.2927 98.1788 12.4325 99.1594 12.7119C100.14 12.9914 100.981 13.4106 101.821 13.9696C102.662 14.5286 103.362 15.0875 103.922 15.926C104.483 16.6247 105.043 17.4631 105.463 18.3016L101.961 19.8387C101.401 18.5811 100.7 17.7426 99.7198 17.0439C98.7392 16.3452 97.4783 16.0657 96.2175 16.0657C95.2369 16.0657 94.3964 16.2055 93.6959 16.6247C92.8554 16.9042 92.295 17.4631 91.7347 18.0221C91.1743 18.5811 90.754 19.2798 90.3338 20.1182C90.0536 20.9567 89.7734 21.7951 89.7734 22.6336C89.7734 23.472 89.9135 24.4502 90.3338 25.1489C90.6139 25.9874 91.1743 26.6861 91.7347 27.245C92.295 27.804 92.9955 28.363 93.836 28.6424C94.6765 28.9219 95.5171 29.2014 96.3576 29.2014C97.7585 29.2014 99.0193 28.7822 100 28.0835C100.981 27.3848 101.681 26.4066 102.241 25.2887L105.884 26.8258C105.043 28.6424 103.922 30.1796 102.241 31.2975C100.28 32.4154 98.3189 32.9744 96.0774 32.9744Z" fill="black"/>
<path d="M115.971 32.9749C113.309 32.9749 111.348 32.1365 109.947 30.5993C108.546 29.0622 107.845 26.966 107.845 24.1712V12.8522H111.908V24.0315C111.908 25.7084 112.328 27.1058 113.169 28.084C114.009 29.0622 115.27 29.6211 116.951 29.6211C117.652 29.6211 118.352 29.4814 119.053 29.2019C119.753 28.9224 120.313 28.5032 120.734 28.084C121.154 27.6648 121.574 26.966 121.854 26.2673C122.135 25.5686 122.275 24.7302 122.275 23.8917V12.9919H126.197V32.6954H122.135V30.0404C121.434 31.0185 120.594 31.7172 119.473 32.2762C118.492 32.6954 117.231 32.9749 115.971 32.9749Z" fill="black"/>
<path d="M143.988 24.1712C143.568 23.4725 143.008 22.9135 142.307 22.4943C141.607 22.0751 140.906 21.6559 140.066 21.5161C139.226 21.2366 138.385 21.0969 137.545 20.8174C136.004 20.5379 134.883 20.1187 134.042 19.8392C133.202 19.5597 132.781 19.0008 132.781 18.1623C132.781 17.4636 133.062 16.9047 133.622 16.3457C134.182 15.9265 135.163 15.647 136.284 15.647C137.404 15.647 138.245 15.7867 138.945 16.2059C139.646 16.6252 140.346 17.1841 140.766 17.8828L143.568 15.088C142.868 14.2496 142.027 13.6906 141.046 13.1316C139.786 12.4329 138.245 12.1534 136.284 12.1534C135.163 12.1534 134.042 12.2932 133.062 12.5727C132.081 12.8521 131.381 13.2714 130.68 13.8303C129.98 14.3893 129.559 14.9483 129.139 15.7867C128.719 16.4854 128.579 17.1841 128.579 18.0226C128.579 19.0008 128.719 19.8392 129.139 20.5379C129.559 21.2366 130.12 21.7956 130.68 22.2148C131.381 22.634 132.081 22.9135 132.922 23.193C133.762 23.4725 134.603 23.6122 135.443 23.8917C136.144 24.0315 136.704 24.1712 137.264 24.3109C137.825 24.4507 138.385 24.5904 138.805 24.7302C139.226 24.8699 139.646 25.1494 139.926 25.4289C140.206 25.7083 140.346 26.1276 140.346 26.5468C140.346 27.2455 140.066 27.9442 139.366 28.5032C138.665 29.0621 137.685 29.3416 136.424 29.3416C135.163 29.3416 134.182 29.0621 133.342 28.6429C132.501 28.0839 131.801 27.3852 131.1 26.5468L128.158 29.4814C128.859 30.4595 129.84 31.298 130.96 31.857C132.361 32.5557 134.182 32.9749 136.284 32.9749C137.685 32.9749 138.805 32.8351 139.786 32.4159C140.766 31.9967 141.607 31.5775 142.307 31.0185C143.008 30.4595 143.428 29.7608 143.848 29.0621C144.128 28.3634 144.409 27.525 144.409 26.8263C144.549 25.7083 144.409 24.8699 143.988 24.1712Z" fill="black"/>
</g>
<defs>
<clipPath id="clip0_0_984">
<rect width="144.293" height="36.3327" fill="white" transform="translate(0.25592 0.833618)"/>
</clipPath>
</defs>
</svg>
