<svg width="63" height="61" viewBox="0 0 63 61" fill="none" xmlns="http://www.w3.org/2000/svg">
<mask id="path-1-outside-1_0_965" maskUnits="userSpaceOnUse" x="0" y="3.91272" width="63" height="52" fill="black">
<rect fill="white" y="3.91272" width="63" height="52"/>
<path d="M31.5079 4.91272C23.0988 4.91272 15.6502 9.09283 11.1389 15.4691C10.9814 15.6916 10.8694 15.9429 10.8093 16.2087C10.7492 16.4744 10.7421 16.7493 10.7884 17.0178C10.8348 17.2863 10.9336 17.543 11.0794 17.7733C11.2252 18.0037 11.4149 18.2031 11.6379 18.3602C11.8609 18.5173 12.1127 18.6291 12.379 18.689C12.6452 18.749 12.9207 18.7561 13.1897 18.7098C13.4587 18.6635 13.7159 18.5648 13.9467 18.4193C14.1774 18.2738 14.3772 18.0843 14.5346 17.8617C18.2994 12.5406 24.4759 9.06073 31.5079 9.06073C42.4571 9.06073 51.3711 17.4575 52.2044 28.167L50.2752 26.2415C50.0813 26.0429 49.8494 25.8851 49.5933 25.7775C49.3373 25.6699 49.0622 25.6146 48.7843 25.615C48.3713 25.6156 47.9679 25.7391 47.6255 25.9695C47.2831 26.2 47.0173 26.5271 46.862 26.909C46.7066 27.291 46.6688 27.7104 46.7534 28.1139C46.838 28.5173 47.041 28.8865 47.3367 29.1742L52.8971 34.7238C53.2868 35.1126 53.8153 35.3311 54.3663 35.3311C54.9174 35.3311 55.4458 35.1126 55.8356 34.7238L61.377 29.1932C61.5764 29.002 61.7356 28.7731 61.8453 28.5198C61.955 28.2665 62.013 27.994 62.0158 27.718C62.0186 27.4421 61.9662 27.1684 61.8617 26.9129C61.7572 26.6575 61.6027 26.4254 61.4072 26.2303C61.2117 26.0351 60.9791 25.8809 60.7232 25.7766C60.4672 25.6723 60.193 25.62 59.9165 25.6228C59.64 25.6256 59.3669 25.6835 59.1131 25.793C58.8594 25.9024 58.63 26.0613 58.4385 26.2604L56.3686 28.3263C55.5975 15.2923 44.7571 4.91272 31.5079 4.91272ZM31.5079 15.9741C30.3222 15.9741 29.1898 16.1372 28.1257 16.4035C27.732 16.5022 27.3758 16.7139 27.1012 17.0124C26.8266 17.3109 26.6457 17.6832 26.5807 18.0832L26.3643 19.4037C26.3162 19.692 26.1427 19.9426 25.888 20.0897C25.6339 20.2351 25.3311 20.2596 25.0601 20.1572L23.7992 19.6819C23.4202 19.5386 23.0074 19.509 22.6117 19.5968C22.2161 19.6846 21.8548 19.886 21.5723 20.1761C20.0002 21.7939 18.8241 23.7955 18.1901 26.0254C18.0797 26.4145 18.0857 26.8274 18.2073 27.2131C18.329 27.5989 18.5609 27.9408 18.8747 28.1967L19.9164 29.0473C20.1444 29.2336 20.2736 29.506 20.2736 29.8008C20.2736 30.0955 20.1444 30.368 19.9164 30.5542L18.8747 31.4049C18.5609 31.6608 18.329 32.0026 18.2073 32.3884C18.0857 32.7742 18.0797 33.187 18.1901 33.5761C18.8237 35.8049 19.9993 37.8072 21.575 39.4254C21.8573 39.7151 22.2181 39.9161 22.6132 40.0039C23.0083 40.0917 23.4205 40.0624 23.7992 39.9196L25.0601 39.4443C25.332 39.3416 25.6361 39.3652 25.8908 39.5119C26.1438 39.6576 26.3165 39.9093 26.3643 40.2005L26.5807 41.5184C26.6457 41.9184 26.8266 42.2906 27.1012 42.5891C27.3758 42.8876 27.732 43.0993 28.1257 43.1981C29.1898 43.4644 30.3222 43.6275 31.5079 43.6275C32.6936 43.6275 33.8261 43.4644 34.8902 43.1981C35.2839 43.0993 35.6401 42.8876 35.9147 42.5891C36.1892 42.2906 36.3702 41.9184 36.4352 41.5184L36.6516 40.2005V40.1978C36.6997 39.9095 36.8732 39.6589 37.1278 39.5119C37.382 39.3665 37.6848 39.3419 37.9558 39.4443L39.2167 39.9196C39.5957 40.063 40.0085 40.0926 40.4041 40.0048C40.7998 39.9169 41.1611 39.7156 41.4436 39.4254C43.0157 37.8076 44.1918 35.806 44.8258 33.5761C44.9362 33.187 44.9302 32.7742 44.8085 32.3884C44.6869 32.0026 44.455 31.6608 44.1412 31.4049L43.0995 30.5542C42.8715 30.368 42.7423 30.0955 42.7423 29.8008C42.7423 29.506 42.8715 29.2336 43.0995 29.0473L44.1412 28.1967C44.455 27.9408 44.6869 27.5989 44.8085 27.2131C44.9302 26.8274 44.9362 26.4145 44.8258 26.0254C44.1907 23.7917 43.0086 21.7938 41.4408 20.1788C41.1587 19.8882 40.7975 19.6863 40.4019 19.598C40.0062 19.5097 39.5933 19.5389 39.214 19.6819L37.9585 20.1572C37.6866 20.26 37.3798 20.2363 37.1251 20.0897C36.8728 19.9444 36.7 19.6939 36.6516 19.4037V19.401L36.4324 18.067C36.3667 17.6683 36.1857 17.2975 35.9117 17C35.6377 16.7026 35.2827 16.4915 34.8902 16.3927C33.8089 16.1212 32.674 15.9741 31.5079 15.9741ZM31.5079 20.1221C31.8939 20.1221 32.2519 20.2157 32.6254 20.2598C32.9197 21.6899 33.7775 22.9488 35.0498 23.6814C36.2663 24.3818 37.7082 24.4814 39.0489 24.0892C39.5278 24.7195 39.9229 25.3979 40.2368 26.1335C39.224 27.0964 38.5862 28.3962 38.5862 29.8008C38.5862 31.2041 39.223 32.5027 40.2341 33.4654C39.9208 34.2022 39.5295 34.8825 39.0516 35.5124C37.7096 35.1183 36.2651 35.2189 35.0471 35.9202C33.7789 36.6526 32.9239 37.9098 32.6281 39.3363C32.255 39.3829 31.8877 39.4795 31.5079 39.4795C31.1282 39.4795 30.7609 39.3829 30.3878 39.3363C30.0922 37.9087 29.2393 36.6517 27.9688 35.9202C26.7508 35.2189 25.3063 35.1183 23.9642 35.5124C23.4868 34.8834 23.0923 34.2051 22.7791 33.4681C23.7919 32.5052 24.4296 31.2054 24.4296 29.8008C24.4296 28.3975 23.7929 27.0989 22.7818 26.1362C23.0951 25.3993 23.4864 24.7191 23.9642 24.0892C25.3063 24.4832 26.7508 24.3827 27.9688 23.6814C29.237 22.9489 30.092 21.6918 30.3878 20.2652C30.7609 20.2187 31.1282 20.1221 31.5079 20.1221ZM8.61979 24.2701C8.07903 24.278 7.56265 24.496 7.18032 24.8777L1.63889 30.4084C1.43945 30.5995 1.28023 30.8284 1.17055 31.0817C1.06086 31.335 1.00292 31.6076 1.00011 31.8835C0.997297 32.1594 1.04968 32.4331 1.15418 32.6886C1.25868 32.9441 1.41321 33.1762 1.6087 33.3713C1.8042 33.5664 2.03674 33.7206 2.2927 33.8249C2.54867 33.9292 2.82291 33.9815 3.09937 33.9787C3.37583 33.9759 3.64895 33.9181 3.90274 33.8086C4.15653 33.6991 4.38588 33.5402 4.57736 33.3412L6.64728 31.2753C7.41843 44.3093 18.2588 54.6888 31.5079 54.6888C39.9171 54.6888 47.3657 50.5087 51.877 44.1325C52.0345 43.9099 52.1465 43.6586 52.2066 43.3929C52.2667 43.1272 52.2738 42.8522 52.2275 42.5837C52.1811 42.3153 52.0823 42.0585 51.9365 41.8282C51.7907 41.5979 51.6009 41.3985 51.3779 41.2413C51.155 41.0842 50.9032 40.9725 50.6369 40.9125C50.3706 40.8525 50.0952 40.8455 49.8262 40.8918C49.5572 40.938 49.3 41.0368 49.0692 41.1823C48.8384 41.3278 48.6387 41.5172 48.4813 41.7398C44.7165 47.0609 38.54 50.5408 31.5079 50.5408C20.5588 50.5408 11.6447 42.1441 10.8115 31.4346L12.7407 33.3601C12.9322 33.5591 13.1615 33.718 13.4153 33.8275C13.6691 33.937 13.9422 33.9948 14.2187 33.9976C14.4951 34.0004 14.7694 33.9481 15.0253 33.8438C15.2813 33.7395 15.5138 33.5853 15.7093 33.3902C15.9048 33.1951 16.0594 32.963 16.1639 32.7075C16.2684 32.452 16.3207 32.1783 16.3179 31.9024C16.3151 31.6265 16.2572 31.3539 16.1475 31.1006C16.0378 30.8473 15.8786 30.6184 15.6792 30.4273L10.1188 24.8777C9.92232 24.6815 9.68844 24.5267 9.43096 24.4223C9.17349 24.318 8.89766 24.2662 8.61979 24.2701ZM31.5079 27.0354C30.7731 27.0354 30.0684 27.3268 29.5488 27.8454C29.0291 28.364 28.7372 29.0674 28.7372 29.8008C28.7372 30.5342 29.0291 31.2376 29.5488 31.7562C30.0684 32.2748 30.7731 32.5661 31.5079 32.5661C32.2428 32.5661 32.9475 32.2748 33.4671 31.7562C33.9867 31.2376 34.2787 30.5342 34.2787 29.8008C34.2787 29.0674 33.9867 28.364 33.4671 27.8454C32.9475 27.3268 32.2428 27.0354 31.5079 27.0354Z"/>
</mask>
<path d="M31.5079 4.91272C23.0988 4.91272 15.6502 9.09283 11.1389 15.4691C10.9814 15.6916 10.8694 15.9429 10.8093 16.2087C10.7492 16.4744 10.7421 16.7493 10.7884 17.0178C10.8348 17.2863 10.9336 17.543 11.0794 17.7733C11.2252 18.0037 11.4149 18.2031 11.6379 18.3602C11.8609 18.5173 12.1127 18.6291 12.379 18.689C12.6452 18.749 12.9207 18.7561 13.1897 18.7098C13.4587 18.6635 13.7159 18.5648 13.9467 18.4193C14.1774 18.2738 14.3772 18.0843 14.5346 17.8617C18.2994 12.5406 24.4759 9.06073 31.5079 9.06073C42.4571 9.06073 51.3711 17.4575 52.2044 28.167L50.2752 26.2415C50.0813 26.0429 49.8494 25.8851 49.5933 25.7775C49.3373 25.6699 49.0622 25.6146 48.7843 25.615C48.3713 25.6156 47.9679 25.7391 47.6255 25.9695C47.2831 26.2 47.0173 26.5271 46.862 26.909C46.7066 27.291 46.6688 27.7104 46.7534 28.1139C46.838 28.5173 47.041 28.8865 47.3367 29.1742L52.8971 34.7238C53.2868 35.1126 53.8153 35.3311 54.3663 35.3311C54.9174 35.3311 55.4458 35.1126 55.8356 34.7238L61.377 29.1932C61.5764 29.002 61.7356 28.7731 61.8453 28.5198C61.955 28.2665 62.013 27.994 62.0158 27.718C62.0186 27.4421 61.9662 27.1684 61.8617 26.9129C61.7572 26.6575 61.6027 26.4254 61.4072 26.2303C61.2117 26.0351 60.9791 25.8809 60.7232 25.7766C60.4672 25.6723 60.193 25.62 59.9165 25.6228C59.64 25.6256 59.3669 25.6835 59.1131 25.793C58.8594 25.9024 58.63 26.0613 58.4385 26.2604L56.3686 28.3263C55.5975 15.2923 44.7571 4.91272 31.5079 4.91272ZM31.5079 15.9741C30.3222 15.9741 29.1898 16.1372 28.1257 16.4035C27.732 16.5022 27.3758 16.7139 27.1012 17.0124C26.8266 17.3109 26.6457 17.6832 26.5807 18.0832L26.3643 19.4037C26.3162 19.692 26.1427 19.9426 25.888 20.0897C25.6339 20.2351 25.3311 20.2596 25.0601 20.1572L23.7992 19.6819C23.4202 19.5386 23.0074 19.509 22.6117 19.5968C22.2161 19.6846 21.8548 19.886 21.5723 20.1761C20.0002 21.7939 18.8241 23.7955 18.1901 26.0254C18.0797 26.4145 18.0857 26.8274 18.2073 27.2131C18.329 27.5989 18.5609 27.9408 18.8747 28.1967L19.9164 29.0473C20.1444 29.2336 20.2736 29.506 20.2736 29.8008C20.2736 30.0955 20.1444 30.368 19.9164 30.5542L18.8747 31.4049C18.5609 31.6608 18.329 32.0026 18.2073 32.3884C18.0857 32.7742 18.0797 33.187 18.1901 33.5761C18.8237 35.8049 19.9993 37.8072 21.575 39.4254C21.8573 39.7151 22.2181 39.9161 22.6132 40.0039C23.0083 40.0917 23.4205 40.0624 23.7992 39.9196L25.0601 39.4443C25.332 39.3416 25.6361 39.3652 25.8908 39.5119C26.1438 39.6576 26.3165 39.9093 26.3643 40.2005L26.5807 41.5184C26.6457 41.9184 26.8266 42.2906 27.1012 42.5891C27.3758 42.8876 27.732 43.0993 28.1257 43.1981C29.1898 43.4644 30.3222 43.6275 31.5079 43.6275C32.6936 43.6275 33.8261 43.4644 34.8902 43.1981C35.2839 43.0993 35.6401 42.8876 35.9147 42.5891C36.1892 42.2906 36.3702 41.9184 36.4352 41.5184L36.6516 40.2005V40.1978C36.6997 39.9095 36.8732 39.6589 37.1278 39.5119C37.382 39.3665 37.6848 39.3419 37.9558 39.4443L39.2167 39.9196C39.5957 40.063 40.0085 40.0926 40.4041 40.0048C40.7998 39.9169 41.1611 39.7156 41.4436 39.4254C43.0157 37.8076 44.1918 35.806 44.8258 33.5761C44.9362 33.187 44.9302 32.7742 44.8085 32.3884C44.6869 32.0026 44.455 31.6608 44.1412 31.4049L43.0995 30.5542C42.8715 30.368 42.7423 30.0955 42.7423 29.8008C42.7423 29.506 42.8715 29.2336 43.0995 29.0473L44.1412 28.1967C44.455 27.9408 44.6869 27.5989 44.8085 27.2131C44.9302 26.8274 44.9362 26.4145 44.8258 26.0254C44.1907 23.7917 43.0086 21.7938 41.4408 20.1788C41.1587 19.8882 40.7975 19.6863 40.4019 19.598C40.0062 19.5097 39.5933 19.5389 39.214 19.6819L37.9585 20.1572C37.6866 20.26 37.3798 20.2363 37.1251 20.0897C36.8728 19.9444 36.7 19.6939 36.6516 19.4037V19.401L36.4324 18.067C36.3667 17.6683 36.1857 17.2975 35.9117 17C35.6377 16.7026 35.2827 16.4915 34.8902 16.3927C33.8089 16.1212 32.674 15.9741 31.5079 15.9741ZM31.5079 20.1221C31.8939 20.1221 32.2519 20.2157 32.6254 20.2598C32.9197 21.6899 33.7775 22.9488 35.0498 23.6814C36.2663 24.3818 37.7082 24.4814 39.0489 24.0892C39.5278 24.7195 39.9229 25.3979 40.2368 26.1335C39.224 27.0964 38.5862 28.3962 38.5862 29.8008C38.5862 31.2041 39.223 32.5027 40.2341 33.4654C39.9208 34.2022 39.5295 34.8825 39.0516 35.5124C37.7096 35.1183 36.2651 35.2189 35.0471 35.9202C33.7789 36.6526 32.9239 37.9098 32.6281 39.3363C32.255 39.3829 31.8877 39.4795 31.5079 39.4795C31.1282 39.4795 30.7609 39.3829 30.3878 39.3363C30.0922 37.9087 29.2393 36.6517 27.9688 35.9202C26.7508 35.2189 25.3063 35.1183 23.9642 35.5124C23.4868 34.8834 23.0923 34.2051 22.7791 33.4681C23.7919 32.5052 24.4296 31.2054 24.4296 29.8008C24.4296 28.3975 23.7929 27.0989 22.7818 26.1362C23.0951 25.3993 23.4864 24.7191 23.9642 24.0892C25.3063 24.4832 26.7508 24.3827 27.9688 23.6814C29.237 22.9489 30.092 21.6918 30.3878 20.2652C30.7609 20.2187 31.1282 20.1221 31.5079 20.1221ZM8.61979 24.2701C8.07903 24.278 7.56265 24.496 7.18032 24.8777L1.63889 30.4084C1.43945 30.5995 1.28023 30.8284 1.17055 31.0817C1.06086 31.335 1.00292 31.6076 1.00011 31.8835C0.997297 32.1594 1.04968 32.4331 1.15418 32.6886C1.25868 32.9441 1.41321 33.1762 1.6087 33.3713C1.8042 33.5664 2.03674 33.7206 2.2927 33.8249C2.54867 33.9292 2.82291 33.9815 3.09937 33.9787C3.37583 33.9759 3.64895 33.9181 3.90274 33.8086C4.15653 33.6991 4.38588 33.5402 4.57736 33.3412L6.64728 31.2753C7.41843 44.3093 18.2588 54.6888 31.5079 54.6888C39.9171 54.6888 47.3657 50.5087 51.877 44.1325C52.0345 43.9099 52.1465 43.6586 52.2066 43.3929C52.2667 43.1272 52.2738 42.8522 52.2275 42.5837C52.1811 42.3153 52.0823 42.0585 51.9365 41.8282C51.7907 41.5979 51.6009 41.3985 51.3779 41.2413C51.155 41.0842 50.9032 40.9725 50.6369 40.9125C50.3706 40.8525 50.0952 40.8455 49.8262 40.8918C49.5572 40.938 49.3 41.0368 49.0692 41.1823C48.8384 41.3278 48.6387 41.5172 48.4813 41.7398C44.7165 47.0609 38.54 50.5408 31.5079 50.5408C20.5588 50.5408 11.6447 42.1441 10.8115 31.4346L12.7407 33.3601C12.9322 33.5591 13.1615 33.718 13.4153 33.8275C13.6691 33.937 13.9422 33.9948 14.2187 33.9976C14.4951 34.0004 14.7694 33.9481 15.0253 33.8438C15.2813 33.7395 15.5138 33.5853 15.7093 33.3902C15.9048 33.1951 16.0594 32.963 16.1639 32.7075C16.2684 32.452 16.3207 32.1783 16.3179 31.9024C16.3151 31.6265 16.2572 31.3539 16.1475 31.1006C16.0378 30.8473 15.8786 30.6184 15.6792 30.4273L10.1188 24.8777C9.92232 24.6815 9.68844 24.5267 9.43096 24.4223C9.17349 24.318 8.89766 24.2662 8.61979 24.2701ZM31.5079 27.0354C30.7731 27.0354 30.0684 27.3268 29.5488 27.8454C29.0291 28.364 28.7372 29.0674 28.7372 29.8008C28.7372 30.5342 29.0291 31.2376 29.5488 31.7562C30.0684 32.2748 30.7731 32.5661 31.5079 32.5661C32.2428 32.5661 32.9475 32.2748 33.4671 31.7562C33.9867 31.2376 34.2787 30.5342 34.2787 29.8008C34.2787 29.0674 33.9867 28.364 33.4671 27.8454C32.9475 27.3268 32.2428 27.0354 31.5079 27.0354Z" fill="#2563EB"/>
<path d="M31.5079 4.91272C23.0988 4.91272 15.6502 9.09283 11.1389 15.4691C10.9814 15.6916 10.8694 15.9429 10.8093 16.2087C10.7492 16.4744 10.7421 16.7493 10.7884 17.0178C10.8348 17.2863 10.9336 17.543 11.0794 17.7733C11.2252 18.0037 11.4149 18.2031 11.6379 18.3602C11.8609 18.5173 12.1127 18.6291 12.379 18.689C12.6452 18.749 12.9207 18.7561 13.1897 18.7098C13.4587 18.6635 13.7159 18.5648 13.9467 18.4193C14.1774 18.2738 14.3772 18.0843 14.5346 17.8617C18.2994 12.5406 24.4759 9.06073 31.5079 9.06073C42.4571 9.06073 51.3711 17.4575 52.2044 28.167L50.2752 26.2415C50.0813 26.0429 49.8494 25.8851 49.5933 25.7775C49.3373 25.6699 49.0622 25.6146 48.7843 25.615C48.3713 25.6156 47.9679 25.7391 47.6255 25.9695C47.2831 26.2 47.0173 26.5271 46.862 26.909C46.7066 27.291 46.6688 27.7104 46.7534 28.1139C46.838 28.5173 47.041 28.8865 47.3367 29.1742L52.8971 34.7238C53.2868 35.1126 53.8153 35.3311 54.3663 35.3311C54.9174 35.3311 55.4458 35.1126 55.8356 34.7238L61.377 29.1932C61.5764 29.002 61.7356 28.7731 61.8453 28.5198C61.955 28.2665 62.013 27.994 62.0158 27.718C62.0186 27.4421 61.9662 27.1684 61.8617 26.9129C61.7572 26.6575 61.6027 26.4254 61.4072 26.2303C61.2117 26.0351 60.9791 25.8809 60.7232 25.7766C60.4672 25.6723 60.193 25.62 59.9165 25.6228C59.64 25.6256 59.3669 25.6835 59.1131 25.793C58.8594 25.9024 58.63 26.0613 58.4385 26.2604L56.3686 28.3263C55.5975 15.2923 44.7571 4.91272 31.5079 4.91272ZM31.5079 15.9741C30.3222 15.9741 29.1898 16.1372 28.1257 16.4035C27.732 16.5022 27.3758 16.7139 27.1012 17.0124C26.8266 17.3109 26.6457 17.6832 26.5807 18.0832L26.3643 19.4037C26.3162 19.692 26.1427 19.9426 25.888 20.0897C25.6339 20.2351 25.3311 20.2596 25.0601 20.1572L23.7992 19.6819C23.4202 19.5386 23.0074 19.509 22.6117 19.5968C22.2161 19.6846 21.8548 19.886 21.5723 20.1761C20.0002 21.7939 18.8241 23.7955 18.1901 26.0254C18.0797 26.4145 18.0857 26.8274 18.2073 27.2131C18.329 27.5989 18.5609 27.9408 18.8747 28.1967L19.9164 29.0473C20.1444 29.2336 20.2736 29.506 20.2736 29.8008C20.2736 30.0955 20.1444 30.368 19.9164 30.5542L18.8747 31.4049C18.5609 31.6608 18.329 32.0026 18.2073 32.3884C18.0857 32.7742 18.0797 33.187 18.1901 33.5761C18.8237 35.8049 19.9993 37.8072 21.575 39.4254C21.8573 39.7151 22.2181 39.9161 22.6132 40.0039C23.0083 40.0917 23.4205 40.0624 23.7992 39.9196L25.0601 39.4443C25.332 39.3416 25.6361 39.3652 25.8908 39.5119C26.1438 39.6576 26.3165 39.9093 26.3643 40.2005L26.5807 41.5184C26.6457 41.9184 26.8266 42.2906 27.1012 42.5891C27.3758 42.8876 27.732 43.0993 28.1257 43.1981C29.1898 43.4644 30.3222 43.6275 31.5079 43.6275C32.6936 43.6275 33.8261 43.4644 34.8902 43.1981C35.2839 43.0993 35.6401 42.8876 35.9147 42.5891C36.1892 42.2906 36.3702 41.9184 36.4352 41.5184L36.6516 40.2005V40.1978C36.6997 39.9095 36.8732 39.6589 37.1278 39.5119C37.382 39.3665 37.6848 39.3419 37.9558 39.4443L39.2167 39.9196C39.5957 40.063 40.0085 40.0926 40.4041 40.0048C40.7998 39.9169 41.1611 39.7156 41.4436 39.4254C43.0157 37.8076 44.1918 35.806 44.8258 33.5761C44.9362 33.187 44.9302 32.7742 44.8085 32.3884C44.6869 32.0026 44.455 31.6608 44.1412 31.4049L43.0995 30.5542C42.8715 30.368 42.7423 30.0955 42.7423 29.8008C42.7423 29.506 42.8715 29.2336 43.0995 29.0473L44.1412 28.1967C44.455 27.9408 44.6869 27.5989 44.8085 27.2131C44.9302 26.8274 44.9362 26.4145 44.8258 26.0254C44.1907 23.7917 43.0086 21.7938 41.4408 20.1788C41.1587 19.8882 40.7975 19.6863 40.4019 19.598C40.0062 19.5097 39.5933 19.5389 39.214 19.6819L37.9585 20.1572C37.6866 20.26 37.3798 20.2363 37.1251 20.0897C36.8728 19.9444 36.7 19.6939 36.6516 19.4037V19.401L36.4324 18.067C36.3667 17.6683 36.1857 17.2975 35.9117 17C35.6377 16.7026 35.2827 16.4915 34.8902 16.3927C33.8089 16.1212 32.674 15.9741 31.5079 15.9741ZM31.5079 20.1221C31.8939 20.1221 32.2519 20.2157 32.6254 20.2598C32.9197 21.6899 33.7775 22.9488 35.0498 23.6814C36.2663 24.3818 37.7082 24.4814 39.0489 24.0892C39.5278 24.7195 39.9229 25.3979 40.2368 26.1335C39.224 27.0964 38.5862 28.3962 38.5862 29.8008C38.5862 31.2041 39.223 32.5027 40.2341 33.4654C39.9208 34.2022 39.5295 34.8825 39.0516 35.5124C37.7096 35.1183 36.2651 35.2189 35.0471 35.9202C33.7789 36.6526 32.9239 37.9098 32.6281 39.3363C32.255 39.3829 31.8877 39.4795 31.5079 39.4795C31.1282 39.4795 30.7609 39.3829 30.3878 39.3363C30.0922 37.9087 29.2393 36.6517 27.9688 35.9202C26.7508 35.2189 25.3063 35.1183 23.9642 35.5124C23.4868 34.8834 23.0923 34.2051 22.7791 33.4681C23.7919 32.5052 24.4296 31.2054 24.4296 29.8008C24.4296 28.3975 23.7929 27.0989 22.7818 26.1362C23.0951 25.3993 23.4864 24.7191 23.9642 24.0892C25.3063 24.4832 26.7508 24.3827 27.9688 23.6814C29.237 22.9489 30.092 21.6918 30.3878 20.2652C30.7609 20.2187 31.1282 20.1221 31.5079 20.1221ZM8.61979 24.2701C8.07903 24.278 7.56265 24.496 7.18032 24.8777L1.63889 30.4084C1.43945 30.5995 1.28023 30.8284 1.17055 31.0817C1.06086 31.335 1.00292 31.6076 1.00011 31.8835C0.997297 32.1594 1.04968 32.4331 1.15418 32.6886C1.25868 32.9441 1.41321 33.1762 1.6087 33.3713C1.8042 33.5664 2.03674 33.7206 2.2927 33.8249C2.54867 33.9292 2.82291 33.9815 3.09937 33.9787C3.37583 33.9759 3.64895 33.9181 3.90274 33.8086C4.15653 33.6991 4.38588 33.5402 4.57736 33.3412L6.64728 31.2753C7.41843 44.3093 18.2588 54.6888 31.5079 54.6888C39.9171 54.6888 47.3657 50.5087 51.877 44.1325C52.0345 43.9099 52.1465 43.6586 52.2066 43.3929C52.2667 43.1272 52.2738 42.8522 52.2275 42.5837C52.1811 42.3153 52.0823 42.0585 51.9365 41.8282C51.7907 41.5979 51.6009 41.3985 51.3779 41.2413C51.155 41.0842 50.9032 40.9725 50.6369 40.9125C50.3706 40.8525 50.0952 40.8455 49.8262 40.8918C49.5572 40.938 49.3 41.0368 49.0692 41.1823C48.8384 41.3278 48.6387 41.5172 48.4813 41.7398C44.7165 47.0609 38.54 50.5408 31.5079 50.5408C20.5588 50.5408 11.6447 42.1441 10.8115 31.4346L12.7407 33.3601C12.9322 33.5591 13.1615 33.718 13.4153 33.8275C13.6691 33.937 13.9422 33.9948 14.2187 33.9976C14.4951 34.0004 14.7694 33.9481 15.0253 33.8438C15.2813 33.7395 15.5138 33.5853 15.7093 33.3902C15.9048 33.1951 16.0594 32.963 16.1639 32.7075C16.2684 32.452 16.3207 32.1783 16.3179 31.9024C16.3151 31.6265 16.2572 31.3539 16.1475 31.1006C16.0378 30.8473 15.8786 30.6184 15.6792 30.4273L10.1188 24.8777C9.92232 24.6815 9.68844 24.5267 9.43096 24.4223C9.17349 24.318 8.89766 24.2662 8.61979 24.2701ZM31.5079 27.0354C30.7731 27.0354 30.0684 27.3268 29.5488 27.8454C29.0291 28.364 28.7372 29.0674 28.7372 29.8008C28.7372 30.5342 29.0291 31.2376 29.5488 31.7562C30.0684 32.2748 30.7731 32.5661 31.5079 32.5661C32.2428 32.5661 32.9475 32.2748 33.4671 31.7562C33.9867 31.2376 34.2787 30.5342 34.2787 29.8008C34.2787 29.0674 33.9867 28.364 33.4671 27.8454C32.9475 27.3268 32.2428 27.0354 31.5079 27.0354Z" stroke="#2563EB" stroke-width="0.6" mask="url(#path-1-outside-1_0_965)"/>
</svg>
