<svg width="770" height="621" viewBox="0 0 770 621" fill="none" xmlns="http://www.w3.org/2000/svg">
<rect x="-0.00335693" width="770.007" height="621" rx="10" fill="#C4B5FD"/>
<circle opacity="0.2" cx="385.979" cy="307.015" r="115.182" fill="white"/>
<circle opacity="0.5" cx="385.979" cy="307.016" r="99.3441" fill="white"/>
<g filter="url(#filter0_d_2010_49)">
<circle cx="385.979" cy="307.015" r="86.3861" fill="white"/>
<circle cx="385.979" cy="307.015" r="85.8861" stroke="#C4B5FD"/>
</g>
<path d="M340.934 319.998C344.335 319.998 346.643 318.591 348.109 316.466L348.671 319.591H350.948V307.215H341.215V310.903H347.423C346.799 313.716 344.74 315.935 340.934 315.935C336.41 315.935 334.071 312.309 334.071 308.652C334.071 305.027 336.41 301.37 340.934 301.37C343.211 301.37 344.927 302.308 346.082 303.714L349.576 301.37C347.61 298.87 344.553 297.338 340.934 297.338C334.445 297.338 329.828 302.245 329.828 308.652C329.828 315.059 334.445 319.998 340.934 319.998ZM357.458 319.591V313.059C357.458 310.121 358.051 307.121 362.73 307.683V303.37C360.827 303.37 358.644 304.37 357.458 306.34V303.745H353.496V319.591H357.458ZM371.58 319.998C376.353 319.998 379.941 316.31 379.941 311.684C379.941 307.027 376.353 303.37 371.58 303.37C366.838 303.37 363.25 307.027 363.25 311.684C363.25 316.31 366.838 319.998 371.58 319.998ZM371.58 316.185C368.959 316.185 367.306 314.153 367.306 311.684C367.306 309.215 368.959 307.183 371.58 307.183C374.232 307.183 375.885 309.215 375.885 311.684C375.885 314.153 374.232 316.185 371.58 316.185ZM388.51 319.591L391.66 310.246L394.843 319.591H398.368L403.671 303.745H399.397L396.34 313.809L392.971 303.745H390.381L386.981 313.809L383.955 303.745H379.681L384.984 319.591H388.51ZM410.368 319.591V307.371H413.769V303.745H410.368C410.368 301.808 411.055 300.714 413.082 300.714C413.332 300.714 413.55 300.745 413.769 300.745V297.432C413.238 297.338 412.895 297.307 412.115 297.307C407.841 297.307 406.406 300.495 406.406 303.745H404.191V307.371H406.406V319.591H410.368ZM417.502 301.433C418.687 301.433 419.623 300.495 419.623 299.307C419.623 298.151 418.687 297.213 417.502 297.213C416.348 297.213 415.412 298.151 415.412 299.307C415.412 300.495 416.348 301.433 417.502 301.433ZM419.499 319.591V303.745H415.537V319.591H419.499ZM426.133 319.591V310.778C426.133 308.965 427.163 307.215 429.502 307.215C431.749 307.215 432.591 308.746 432.591 310.778V319.591H436.553V309.965C436.553 306.621 434.744 303.37 430.75 303.37C428.442 303.37 427.007 304.402 426.133 305.683V303.745H422.202V319.591H426.133Z" fill="#1A18AD"/>
<g clip-path="url(#clip0_2010_49)">
<path fill-rule="evenodd" clip-rule="evenodd" d="M400.044 290.196C405.639 276.786 416.447 268.844 432.984 265.262C429.423 270.72 429.429 275.666 431.144 278.686C432.86 281.707 440.729 286.334 443.816 298.089C435.478 291.502 427.454 287.884 419.744 287.234C412.034 286.584 405.639 287.202 400.044 290.196Z" fill="#00D4C7"/>
<path fill-rule="evenodd" clip-rule="evenodd" d="M419.915 282.324C420.549 280.99 421.067 280.027 421.469 279.435C422.48 277.944 423.728 276.664 425.213 275.597C426.433 274.72 427.812 273.987 429.352 273.396C429.585 273.307 429.821 273.221 430.062 273.138C430.003 274.058 429.868 275.851 430.825 278.058C431.007 278.476 431.298 279.018 431.744 279.539C433.026 281.034 434.872 282.762 435.766 283.774C436.274 284.35 436.73 284.828 436.682 284.791C433.596 282.469 430.62 281.187 427.755 280.946C424.726 280.691 422.112 281.151 419.915 282.324Z" fill="black" fill-opacity="0.2"/>
</g>
<path d="M419.813 228.548L422.7 223.548H416.927L419.813 228.548ZM392.219 121.785C392.495 121.785 392.719 121.561 392.719 121.285C392.719 121.009 392.495 120.785 392.219 120.785V121.785ZM395.103 120.785C394.827 120.785 394.603 121.009 394.603 121.285C394.603 121.561 394.827 121.785 395.103 121.785V120.785ZM396.065 121.785C396.341 121.785 396.565 121.561 396.565 121.285C396.565 121.009 396.341 120.785 396.065 120.785V121.785ZM398.949 120.785C398.673 120.785 398.449 121.009 398.449 121.285C398.449 121.561 398.673 121.785 398.949 121.785V120.785ZM399.911 121.785C400.187 121.785 400.411 121.561 400.411 121.285C400.411 121.009 400.187 120.785 399.911 120.785V121.785ZM402.795 120.785C402.519 120.785 402.295 121.009 402.295 121.285C402.295 121.561 402.519 121.785 402.795 121.785V120.785ZM403.756 121.785C404.033 121.785 404.256 121.561 404.256 121.285C404.256 121.009 404.033 120.785 403.756 120.785V121.785ZM406.641 120.785C406.365 120.785 406.141 121.009 406.141 121.285C406.141 121.561 406.365 121.785 406.641 121.785V120.785ZM407.602 121.785C407.879 121.785 408.102 121.561 408.102 121.285C408.102 121.009 407.879 120.785 407.602 120.785V121.785ZM410.487 120.785C410.211 120.785 409.987 121.009 409.987 121.285C409.987 121.561 410.211 121.785 410.487 121.785V120.785ZM411.448 121.785C411.724 121.785 411.948 121.561 411.948 121.285C411.948 121.009 411.724 120.785 411.448 120.785V121.785ZM414.333 120.785C414.057 120.785 413.833 121.009 413.833 121.285C413.833 121.561 414.057 121.785 414.333 121.785V120.785ZM415.255 121.806C415.53 121.833 415.775 121.632 415.801 121.357C415.828 121.082 415.627 120.838 415.352 120.811L415.255 121.806ZM418.303 122.033C418.09 121.858 417.774 121.889 417.599 122.102C417.424 122.316 417.455 122.631 417.668 122.806L418.303 122.033ZM418.292 123.43C418.468 123.644 418.783 123.675 418.996 123.499C419.209 123.324 419.24 123.009 419.065 122.795L418.292 123.43ZM420.287 125.746C420.261 125.471 420.016 125.27 419.741 125.297C419.466 125.324 419.265 125.568 419.292 125.843L420.287 125.746ZM419.313 126.777C419.313 127.053 419.537 127.277 419.813 127.277C420.09 127.277 420.313 127.053 420.313 126.777H419.313ZM420.313 129.726C420.313 129.45 420.09 129.226 419.813 129.226C419.537 129.226 419.313 129.45 419.313 129.726H420.313ZM419.313 130.71C419.313 130.986 419.537 131.21 419.813 131.21C420.09 131.21 420.313 130.986 420.313 130.71H419.313ZM420.313 133.66C420.313 133.383 420.09 133.16 419.813 133.16C419.537 133.16 419.313 133.383 419.313 133.66H420.313ZM419.313 134.643C419.313 134.919 419.537 135.143 419.813 135.143C420.09 135.143 420.313 134.919 420.313 134.643H419.313ZM420.313 137.593C420.313 137.317 420.09 137.093 419.813 137.093C419.537 137.093 419.313 137.317 419.313 137.593H420.313ZM419.313 138.576C419.313 138.852 419.537 139.076 419.813 139.076C420.09 139.076 420.313 138.852 420.313 138.576H419.313ZM420.313 141.526C420.313 141.25 420.09 141.026 419.813 141.026C419.537 141.026 419.313 141.25 419.313 141.526H420.313ZM419.313 142.509C419.313 142.785 419.537 143.009 419.813 143.009C420.09 143.009 420.313 142.785 420.313 142.509H419.313ZM420.313 145.459C420.313 145.183 420.09 144.959 419.813 144.959C419.537 144.959 419.313 145.183 419.313 145.459H420.313ZM419.313 146.442C419.313 146.719 419.537 146.942 419.813 146.942C420.09 146.942 420.313 146.719 420.313 146.442H419.313ZM420.313 149.392C420.313 149.116 420.09 148.892 419.813 148.892C419.537 148.892 419.313 149.116 419.313 149.392H420.313ZM419.313 150.376C419.313 150.652 419.537 150.876 419.813 150.876C420.09 150.876 420.313 150.652 420.313 150.376H419.313ZM420.313 153.326C420.313 153.049 420.09 152.826 419.813 152.826C419.537 152.826 419.313 153.049 419.313 153.326H420.313ZM419.313 154.309C419.313 154.585 419.537 154.809 419.813 154.809C420.09 154.809 420.313 154.585 420.313 154.309H419.313ZM420.313 157.259C420.313 156.983 420.09 156.759 419.813 156.759C419.537 156.759 419.313 156.983 419.313 157.259H420.313ZM419.313 158.242C419.313 158.518 419.537 158.742 419.813 158.742C420.09 158.742 420.313 158.518 420.313 158.242H419.313ZM420.313 161.192C420.313 160.916 420.09 160.692 419.813 160.692C419.537 160.692 419.313 160.916 419.313 161.192H420.313ZM419.313 162.175C419.313 162.451 419.537 162.675 419.813 162.675C420.09 162.675 420.313 162.451 420.313 162.175H419.313ZM420.313 165.125C420.313 164.849 420.09 164.625 419.813 164.625C419.537 164.625 419.313 164.849 419.313 165.125H420.313ZM419.313 166.108C419.313 166.385 419.537 166.608 419.813 166.608C420.09 166.608 420.313 166.385 420.313 166.108H419.313ZM420.313 169.058C420.313 168.782 420.09 168.558 419.813 168.558C419.537 168.558 419.313 168.782 419.313 169.058H420.313ZM419.313 170.042C419.313 170.318 419.537 170.542 419.813 170.542C420.09 170.542 420.313 170.318 420.313 170.042H419.313ZM420.313 172.991C420.313 172.715 420.09 172.491 419.813 172.491C419.537 172.491 419.313 172.715 419.313 172.991H420.313ZM419.313 173.975C419.313 174.251 419.537 174.475 419.813 174.475C420.09 174.475 420.313 174.251 420.313 173.975H419.313ZM420.313 176.925C420.313 176.649 420.09 176.425 419.813 176.425C419.537 176.425 419.313 176.649 419.313 176.925H420.313ZM419.313 177.908C419.313 178.184 419.537 178.408 419.813 178.408C420.09 178.408 420.313 178.184 420.313 177.908H419.313ZM420.313 180.858C420.313 180.582 420.09 180.358 419.813 180.358C419.537 180.358 419.313 180.582 419.313 180.858H420.313ZM419.313 181.841C419.313 182.117 419.537 182.341 419.813 182.341C420.09 182.341 420.313 182.117 420.313 181.841H419.313ZM420.313 184.791C420.313 184.515 420.09 184.291 419.813 184.291C419.537 184.291 419.313 184.515 419.313 184.791H420.313ZM419.313 185.774C419.313 186.05 419.537 186.274 419.813 186.274C420.09 186.274 420.313 186.05 420.313 185.774H419.313ZM420.313 188.724C420.313 188.448 420.09 188.224 419.813 188.224C419.537 188.224 419.313 188.448 419.313 188.724H420.313ZM419.313 189.707C419.313 189.984 419.537 190.207 419.813 190.207C420.09 190.207 420.313 189.984 420.313 189.707H419.313ZM420.313 192.657C420.313 192.381 420.09 192.157 419.813 192.157C419.537 192.157 419.313 192.381 419.313 192.657H420.313ZM419.313 193.641C419.313 193.917 419.537 194.141 419.813 194.141C420.09 194.141 420.313 193.917 420.313 193.641H419.313ZM420.313 196.591C420.313 196.314 420.09 196.091 419.813 196.091C419.537 196.091 419.313 196.314 419.313 196.591H420.313ZM419.313 197.574C419.313 197.85 419.537 198.074 419.813 198.074C420.09 198.074 420.313 197.85 420.313 197.574H419.313ZM420.313 200.524C420.313 200.248 420.09 200.024 419.813 200.024C419.537 200.024 419.313 200.248 419.313 200.524H420.313ZM419.313 201.507C419.313 201.783 419.537 202.007 419.813 202.007C420.09 202.007 420.313 201.783 420.313 201.507H419.313ZM420.313 204.457C420.313 204.181 420.09 203.957 419.813 203.957C419.537 203.957 419.313 204.181 419.313 204.457H420.313ZM419.313 205.44C419.313 205.716 419.537 205.94 419.813 205.94C420.09 205.94 420.313 205.716 420.313 205.44H419.313ZM420.313 208.39C420.313 208.114 420.09 207.89 419.813 207.89C419.537 207.89 419.313 208.114 419.313 208.39H420.313ZM419.313 209.373C419.313 209.65 419.537 209.873 419.813 209.873C420.09 209.873 420.313 209.65 420.313 209.373H419.313ZM420.313 212.323C420.313 212.047 420.09 211.823 419.813 211.823C419.537 211.823 419.313 212.047 419.313 212.323H420.313ZM419.313 213.307C419.313 213.583 419.537 213.807 419.813 213.807C420.09 213.807 420.313 213.583 420.313 213.307H419.313ZM420.313 216.257C420.313 215.98 420.09 215.757 419.813 215.757C419.537 215.757 419.313 215.98 419.313 216.257H420.313ZM419.313 217.24C419.313 217.516 419.537 217.74 419.813 217.74C420.09 217.74 420.313 217.516 420.313 217.24H419.313ZM420.313 220.19C420.313 219.914 420.09 219.69 419.813 219.69C419.537 219.69 419.313 219.914 419.313 220.19H420.313ZM419.313 221.173C419.313 221.449 419.537 221.673 419.813 221.673C420.09 221.673 420.313 221.449 420.313 221.173H419.313ZM420.313 224.123C420.313 223.847 420.09 223.623 419.813 223.623C419.537 223.623 419.313 223.847 419.313 224.123H420.313ZM419.313 225.106C419.313 225.382 419.537 225.606 419.813 225.606C420.09 225.606 420.313 225.382 420.313 225.106H419.313ZM420.313 228.056C420.313 227.78 420.09 227.556 419.813 227.556C419.537 227.556 419.313 227.78 419.313 228.056H420.313ZM391.738 121.785H392.219V120.785H391.738V121.785ZM395.103 121.785H396.065V120.785H395.103V121.785ZM398.949 121.785H399.911V120.785H398.949V121.785ZM402.795 121.785H403.756V120.785H402.795V121.785ZM406.641 121.785H407.602V120.785H406.641V121.785ZM410.487 121.785H411.448V120.785H410.487V121.785ZM414.333 121.785H414.814V120.785H414.333V121.785ZM414.814 121.785C414.963 121.785 415.11 121.792 415.255 121.806L415.352 120.811C415.175 120.794 414.995 120.785 414.814 120.785V121.785ZM417.668 122.806C417.896 122.993 418.105 123.202 418.292 123.43L419.065 122.795C418.836 122.517 418.581 122.262 418.303 122.033L417.668 122.806ZM419.292 125.843C419.306 125.988 419.313 126.136 419.313 126.285H420.313C420.313 126.103 420.305 125.924 420.287 125.746L419.292 125.843ZM419.313 126.285V126.777H420.313V126.285H419.313ZM419.313 129.726V130.71H420.313V129.726H419.313ZM419.313 133.66V134.643H420.313V133.66H419.313ZM419.313 137.593V138.576H420.313V137.593H419.313ZM419.313 141.526V142.509H420.313V141.526H419.313ZM419.313 145.459V146.442H420.313V145.459H419.313ZM419.313 149.392V150.376H420.313V149.392H419.313ZM419.313 153.326V154.309H420.313V153.326H419.313ZM419.313 157.259V158.242H420.313V157.259H419.313ZM419.313 161.192V162.175H420.313V161.192H419.313ZM419.313 165.125V166.108H420.313V165.125H419.313ZM419.313 169.058V170.042H420.313V169.058H419.313ZM419.313 172.991V173.975H420.313V172.991H419.313ZM419.313 176.925V177.908H420.313V176.925H419.313ZM419.313 180.858V181.841H420.313V180.858H419.313ZM419.313 184.791V185.774H420.313V184.791H419.313ZM419.313 188.724V189.707H420.313V188.724H419.313ZM419.313 192.657V193.641H420.313V192.657H419.313ZM419.313 196.591V197.574H420.313V196.591H419.313ZM419.313 200.524V201.507H420.313V200.524H419.313ZM419.313 204.457V205.44H420.313V204.457H419.313ZM419.313 208.39V209.373H420.313V208.39H419.313ZM419.313 212.323V213.307H420.313V212.323H419.313ZM419.313 216.257V217.24H420.313V216.257H419.313ZM419.313 220.19V221.173H420.313V220.19H419.313ZM419.313 224.123V225.106H420.313V224.123H419.313Z" fill="#7C3AED"/>
<path d="M305.352 278.22L300.352 275.333V281.107L305.352 278.22ZM206.537 203.132C206.813 203.132 207.037 202.908 207.037 202.632C207.037 202.356 206.813 202.132 206.537 202.132V203.132ZM209.713 202.132C209.437 202.132 209.213 202.356 209.213 202.632C209.213 202.908 209.437 203.132 209.713 203.132V202.132ZM210.771 203.132C211.047 203.132 211.271 202.908 211.271 202.632C211.271 202.356 211.047 202.132 210.771 202.132V203.132ZM213.947 202.132C213.671 202.132 213.447 202.356 213.447 202.632C213.447 202.908 213.671 203.132 213.947 203.132V202.132ZM215.006 203.132C215.282 203.132 215.506 202.908 215.506 202.632C215.506 202.356 215.282 202.132 215.006 202.132V203.132ZM218.181 202.132C217.905 202.132 217.681 202.356 217.681 202.632C217.681 202.908 217.905 203.132 218.181 203.132V202.132ZM219.24 203.132C219.516 203.132 219.74 202.908 219.74 202.632C219.74 202.356 219.516 202.132 219.24 202.132V203.132ZM222.415 202.132C222.139 202.132 221.915 202.356 221.915 202.632C221.915 202.908 222.139 203.132 222.415 203.132V202.132ZM223.474 203.132C223.75 203.132 223.974 202.908 223.974 202.632C223.974 202.356 223.75 202.132 223.474 202.132V203.132ZM226.65 202.132C226.374 202.132 226.15 202.356 226.15 202.632C226.15 202.908 226.374 203.132 226.65 203.132V202.132ZM227.708 203.132C227.984 203.132 228.208 202.908 228.208 202.632C228.208 202.356 227.984 202.132 227.708 202.132V203.132ZM230.884 202.132C230.608 202.132 230.384 202.356 230.384 202.632C230.384 202.908 230.608 203.132 230.884 203.132V202.132ZM231.942 203.132C232.219 203.132 232.442 202.908 232.442 202.632C232.442 202.356 232.219 202.132 231.942 202.132V203.132ZM235.118 202.132C234.842 202.132 234.618 202.356 234.618 202.632C234.618 202.908 234.842 203.132 235.118 203.132V202.132ZM236.177 203.132C236.453 203.132 236.677 202.908 236.677 202.632C236.677 202.356 236.453 202.132 236.177 202.132V203.132ZM239.352 202.132C239.076 202.132 238.852 202.356 238.852 202.632C238.852 202.908 239.076 203.132 239.352 203.132V202.132ZM240.323 203.153C240.598 203.18 240.843 202.979 240.87 202.704C240.896 202.429 240.695 202.185 240.42 202.158L240.323 203.153ZM243.371 203.38C243.158 203.205 242.843 203.236 242.667 203.449C242.492 203.663 242.523 203.978 242.736 204.153L243.371 203.38ZM243.36 204.777C243.536 204.991 243.851 205.022 244.064 204.846C244.278 204.671 244.308 204.356 244.133 204.143L243.36 204.777ZM245.356 207.093C245.329 206.818 245.084 206.617 244.809 206.644C244.535 206.671 244.333 206.915 244.36 207.19L245.356 207.093ZM244.382 208.144C244.382 208.421 244.605 208.644 244.882 208.644C245.158 208.644 245.382 208.421 245.382 208.144H244.382ZM245.382 211.219C245.382 210.943 245.158 210.719 244.882 210.719C244.605 210.719 244.382 210.943 244.382 211.219H245.382ZM244.382 212.244C244.382 212.52 244.605 212.744 244.882 212.744C245.158 212.744 245.382 212.52 245.382 212.244H244.382ZM245.382 215.318C245.382 215.042 245.158 214.818 244.882 214.818C244.605 214.818 244.382 215.042 244.382 215.318H245.382ZM244.382 216.343C244.382 216.619 244.605 216.843 244.882 216.843C245.158 216.843 245.382 216.619 245.382 216.343H244.382ZM245.382 219.417C245.382 219.141 245.158 218.917 244.882 218.917C244.605 218.917 244.382 219.141 244.382 219.417H245.382ZM244.382 220.442C244.382 220.718 244.605 220.942 244.882 220.942C245.158 220.942 245.382 220.718 245.382 220.442H244.382ZM245.382 223.517C245.382 223.24 245.158 223.017 244.882 223.017C244.605 223.017 244.382 223.24 244.382 223.517H245.382ZM244.382 224.541C244.382 224.817 244.605 225.041 244.882 225.041C245.158 225.041 245.382 224.817 245.382 224.541H244.382ZM245.382 227.616C245.382 227.34 245.158 227.116 244.882 227.116C244.605 227.116 244.382 227.34 244.382 227.616H245.382ZM244.382 228.641C244.382 228.917 244.605 229.141 244.882 229.141C245.158 229.141 245.382 228.917 245.382 228.641H244.382ZM245.382 231.715C245.382 231.439 245.158 231.215 244.882 231.215C244.605 231.215 244.382 231.439 244.382 231.715H245.382ZM244.382 232.74C244.382 233.016 244.605 233.24 244.882 233.24C245.158 233.24 245.382 233.016 245.382 232.74H244.382ZM245.382 235.814C245.382 235.538 245.158 235.314 244.882 235.314C244.605 235.314 244.382 235.538 244.382 235.814H245.382ZM244.382 236.839C244.382 237.115 244.605 237.339 244.882 237.339C245.158 237.339 245.382 237.115 245.382 236.839H244.382ZM245.382 239.913C245.382 239.637 245.158 239.413 244.882 239.413C244.605 239.413 244.382 239.637 244.382 239.913H245.382ZM244.382 240.938C244.382 241.214 244.605 241.438 244.882 241.438C245.158 241.438 245.382 241.214 245.382 240.938H244.382ZM245.382 244.013C245.382 243.737 245.158 243.513 244.882 243.513C244.605 243.513 244.382 243.737 244.382 244.013H245.382ZM244.382 245.038C244.382 245.314 244.605 245.538 244.882 245.538C245.158 245.538 245.382 245.314 245.382 245.038H244.382ZM245.382 248.112C245.382 247.836 245.158 247.612 244.882 247.612C244.605 247.612 244.382 247.836 244.382 248.112H245.382ZM244.382 249.137C244.382 249.413 244.605 249.637 244.882 249.637C245.158 249.637 245.382 249.413 245.382 249.137H244.382ZM245.382 252.211C245.382 251.935 245.158 251.711 244.882 251.711C244.605 251.711 244.382 251.935 244.382 252.211H245.382ZM244.382 253.236C244.382 253.512 244.605 253.736 244.882 253.736C245.158 253.736 245.382 253.512 245.382 253.236H244.382ZM245.382 256.31C245.382 256.034 245.158 255.81 244.882 255.81C244.605 255.81 244.382 256.034 244.382 256.31H245.382ZM244.382 257.335C244.382 257.611 244.605 257.835 244.882 257.835C245.158 257.835 245.382 257.611 245.382 257.335H244.382ZM245.382 260.41C245.382 260.134 245.158 259.91 244.882 259.91C244.605 259.91 244.382 260.134 244.382 260.41H245.382ZM244.382 261.435C244.382 261.711 244.605 261.935 244.882 261.935C245.158 261.935 245.382 261.711 245.382 261.435H244.382ZM245.382 264.509C245.382 264.233 245.158 264.009 244.882 264.009C244.605 264.009 244.382 264.233 244.382 264.509H245.382ZM244.382 265.534C244.382 265.81 244.605 266.034 244.882 266.034C245.158 266.034 245.382 265.81 245.382 265.534H244.382ZM245.382 268.608C245.382 268.332 245.158 268.108 244.882 268.108C244.605 268.108 244.382 268.332 244.382 268.608H245.382ZM244.382 269.633C244.382 269.909 244.605 270.133 244.882 270.133C245.158 270.133 245.382 269.909 245.382 269.633H244.382ZM245.382 272.707C245.382 272.431 245.158 272.207 244.882 272.207C244.605 272.207 244.382 272.431 244.382 272.707H245.382ZM244.408 273.759C244.434 274.033 244.679 274.234 244.954 274.208C245.229 274.181 245.43 273.937 245.403 273.662L244.408 273.759ZM246.403 276.074C246.227 275.861 245.912 275.83 245.699 276.006C245.486 276.181 245.455 276.496 245.63 276.709L246.403 276.074ZM246.392 277.471C246.606 277.647 246.921 277.616 247.096 277.402C247.271 277.189 247.24 276.874 247.027 276.699L246.392 277.471ZM249.44 277.698C249.165 277.672 248.92 277.873 248.894 278.148C248.867 278.423 249.068 278.667 249.343 278.694L249.44 277.698ZM250.377 278.72C250.653 278.72 250.877 278.496 250.877 278.22C250.877 277.944 250.653 277.72 250.377 277.72V278.72ZM253.348 277.72C253.072 277.72 252.848 277.944 252.848 278.22C252.848 278.496 253.072 278.72 253.348 278.72V277.72ZM254.339 278.72C254.615 278.72 254.839 278.496 254.839 278.22C254.839 277.944 254.615 277.72 254.339 277.72V278.72ZM257.311 277.72C257.035 277.72 256.811 277.944 256.811 278.22C256.811 278.496 257.035 278.72 257.311 278.72V277.72ZM258.301 278.72C258.577 278.72 258.801 278.496 258.801 278.22C258.801 277.944 258.577 277.72 258.301 277.72V278.72ZM261.273 277.72C260.997 277.72 260.773 277.944 260.773 278.22C260.773 278.496 260.997 278.72 261.273 278.72V277.72ZM262.263 278.72C262.54 278.72 262.763 278.496 262.763 278.22C262.763 277.944 262.54 277.72 262.263 277.72V278.72ZM265.235 277.72C264.959 277.72 264.735 277.944 264.735 278.22C264.735 278.496 264.959 278.72 265.235 278.72V277.72ZM266.226 278.72C266.502 278.72 266.726 278.496 266.726 278.22C266.726 277.944 266.502 277.72 266.226 277.72V278.72ZM269.197 277.72C268.921 277.72 268.697 277.944 268.697 278.22C268.697 278.496 268.921 278.72 269.197 278.72V277.72ZM270.188 278.72C270.464 278.72 270.688 278.496 270.688 278.22C270.688 277.944 270.464 277.72 270.188 277.72V278.72ZM273.159 277.72C272.883 277.72 272.659 277.944 272.659 278.22C272.659 278.496 272.883 278.72 273.159 278.72V277.72ZM274.15 278.72C274.426 278.72 274.65 278.496 274.65 278.22C274.65 277.944 274.426 277.72 274.15 277.72V278.72ZM277.121 277.72C276.845 277.72 276.621 277.944 276.621 278.22C276.621 278.496 276.845 278.72 277.121 278.72V277.72ZM278.112 278.72C278.388 278.72 278.612 278.496 278.612 278.22C278.612 277.944 278.388 277.72 278.112 277.72V278.72ZM281.084 277.72C280.808 277.72 280.584 277.944 280.584 278.22C280.584 278.496 280.808 278.72 281.084 278.72V277.72ZM282.074 278.72C282.35 278.72 282.574 278.496 282.574 278.22C282.574 277.944 282.35 277.72 282.074 277.72V278.72ZM285.046 277.72C284.77 277.72 284.546 277.944 284.546 278.22C284.546 278.496 284.77 278.72 285.046 278.72V277.72ZM286.036 278.72C286.312 278.72 286.536 278.496 286.536 278.22C286.536 277.944 286.312 277.72 286.036 277.72V278.72ZM289.008 277.72C288.732 277.72 288.508 277.944 288.508 278.22C288.508 278.496 288.732 278.72 289.008 278.72V277.72ZM289.999 278.72C290.275 278.72 290.499 278.496 290.499 278.22C290.499 277.944 290.275 277.72 289.999 277.72V278.72ZM292.97 277.72C292.694 277.72 292.47 277.944 292.47 278.22C292.47 278.496 292.694 278.72 292.97 278.72V277.72ZM293.961 278.72C294.237 278.72 294.461 278.496 294.461 278.22C294.461 277.944 294.237 277.72 293.961 277.72V278.72ZM296.932 277.72C296.656 277.72 296.432 277.944 296.432 278.22C296.432 278.496 296.656 278.72 296.932 278.72V277.72ZM297.923 278.72C298.199 278.72 298.423 278.496 298.423 278.22C298.423 277.944 298.199 277.72 297.923 277.72V278.72ZM300.894 277.72C300.618 277.72 300.394 277.944 300.394 278.22C300.394 278.496 300.618 278.72 300.894 278.72V277.72ZM301.885 278.72C302.161 278.72 302.385 278.496 302.385 278.22C302.385 277.944 302.161 277.72 301.885 277.72V278.72ZM304.857 277.72C304.58 277.72 304.357 277.944 304.357 278.22C304.357 278.496 304.58 278.72 304.857 278.72V277.72ZM206.008 203.132H206.537V202.132H206.008V203.132ZM209.713 203.132H210.771V202.132H209.713V203.132ZM213.947 203.132H215.006V202.132H213.947V203.132ZM218.181 203.132H219.24V202.132H218.181V203.132ZM222.415 203.132H223.474V202.132H222.415V203.132ZM226.65 203.132H227.708V202.132H226.65V203.132ZM230.884 203.132H231.942V202.132H230.884V203.132ZM235.118 203.132H236.177V202.132H235.118V203.132ZM239.352 203.132H239.882V202.132H239.352V203.132ZM239.882 203.132C240.031 203.132 240.178 203.139 240.323 203.153L240.42 202.158C240.243 202.141 240.063 202.132 239.882 202.132V203.132ZM242.736 204.153C242.964 204.34 243.173 204.549 243.36 204.777L244.133 204.143C243.905 203.864 243.649 203.609 243.371 203.38L242.736 204.153ZM244.36 207.19C244.374 207.335 244.382 207.483 244.382 207.632H245.382C245.382 207.45 245.373 207.271 245.356 207.093L244.36 207.19ZM244.382 207.632V208.144H245.382V207.632H244.382ZM244.382 211.219V212.244H245.382V211.219H244.382ZM244.382 215.318V216.343H245.382V215.318H244.382ZM244.382 219.417V220.442H245.382V219.417H244.382ZM244.382 223.517V224.541H245.382V223.517H244.382ZM244.382 227.616V228.641H245.382V227.616H244.382ZM244.382 231.715V232.74H245.382V231.715H244.382ZM244.382 235.814V236.839H245.382V235.814H244.382ZM244.382 239.913V240.938H245.382V239.913H244.382ZM244.382 244.013V245.038H245.382V244.013H244.382ZM244.382 248.112V249.137H245.382V248.112H244.382ZM244.382 252.211V253.236H245.382V252.211H244.382ZM244.382 256.31V257.335H245.382V256.31H244.382ZM244.382 260.41V261.435H245.382V260.41H244.382ZM244.382 264.509V265.534H245.382V264.509H244.382ZM244.382 268.608V269.633H245.382V268.608H244.382ZM244.382 272.707V273.22H245.382V272.707H244.382ZM244.382 273.22C244.382 273.401 244.39 273.581 244.408 273.759L245.403 273.662C245.389 273.516 245.382 273.369 245.382 273.22H244.382ZM245.63 276.709C245.859 276.987 246.114 277.243 246.392 277.471L247.027 276.699C246.799 276.511 246.59 276.302 246.403 276.074L245.63 276.709ZM249.343 278.694C249.52 278.711 249.7 278.72 249.882 278.72V277.72C249.732 277.72 249.585 277.713 249.44 277.698L249.343 278.694ZM249.882 278.72H250.377V277.72H249.882V278.72ZM253.348 278.72H254.339V277.72H253.348V278.72ZM257.311 278.72H258.301V277.72H257.311V278.72ZM261.273 278.72H262.263V277.72H261.273V278.72ZM265.235 278.72H266.226V277.72H265.235V278.72ZM269.197 278.72H270.188V277.72H269.197V278.72ZM273.159 278.72H274.15V277.72H273.159V278.72ZM277.121 278.72H278.112V277.72H277.121V278.72ZM281.084 278.72H282.074V277.72H281.084V278.72ZM285.046 278.72H286.036V277.72H285.046V278.72ZM289.008 278.72H289.999V277.72H289.008V278.72ZM292.97 278.72H293.961V277.72H292.97V278.72ZM296.932 278.72H297.923V277.72H296.932V278.72ZM300.894 278.72H301.885V277.72H300.894V278.72Z" fill="#7C3AED"/>
<path d="M313.271 350.209L308.271 347.323V353.096L313.271 350.209ZM183.472 390.742C183.472 390.466 183.248 390.242 182.972 390.242C182.695 390.242 182.472 390.466 182.472 390.742H183.472ZM182.472 387.74C182.472 388.016 182.695 388.24 182.972 388.24C183.248 388.24 183.472 388.016 183.472 387.74H182.472ZM183.472 386.739C183.472 386.463 183.248 386.239 182.972 386.239C182.695 386.239 182.472 386.463 182.472 386.739H183.472ZM182.472 383.736C182.472 384.012 182.695 384.236 182.972 384.236C183.248 384.236 183.472 384.012 183.472 383.736H182.472ZM183.472 382.735C183.472 382.459 183.248 382.235 182.972 382.235C182.695 382.235 182.472 382.459 182.472 382.735H183.472ZM182.472 379.732C182.472 380.008 182.695 380.232 182.972 380.232C183.248 380.232 183.472 380.008 183.472 379.732H182.472ZM183.472 378.731C183.472 378.455 183.248 378.231 182.972 378.231C182.695 378.231 182.472 378.455 182.472 378.731H183.472ZM182.472 375.728C182.472 376.005 182.695 376.228 182.972 376.228C183.248 376.228 183.472 376.005 183.472 375.728H182.472ZM183.472 374.728C183.472 374.451 183.248 374.228 182.972 374.228C182.695 374.228 182.472 374.451 182.472 374.728H183.472ZM182.472 371.725C182.472 372.001 182.695 372.225 182.972 372.225C183.248 372.225 183.472 372.001 183.472 371.725H182.472ZM183.472 370.724C183.472 370.448 183.248 370.224 182.972 370.224C182.695 370.224 182.472 370.448 182.472 370.724H183.472ZM182.472 367.721C182.472 367.997 182.695 368.221 182.972 368.221C183.248 368.221 183.472 367.997 183.472 367.721H182.472ZM183.472 366.72C183.472 366.444 183.248 366.22 182.972 366.22C182.695 366.22 182.472 366.444 182.472 366.72H183.472ZM182.472 363.717C182.472 363.994 182.695 364.217 182.972 364.217C183.248 364.217 183.472 363.994 183.472 363.717H182.472ZM183.472 362.716C183.472 362.44 183.248 362.216 182.972 362.216C182.695 362.216 182.472 362.44 182.472 362.716H183.472ZM182.472 359.714C182.472 359.99 182.695 360.214 182.972 360.214C183.248 360.214 183.472 359.99 183.472 359.714H182.472ZM183.472 358.713C183.472 358.437 183.248 358.213 182.972 358.213C182.695 358.213 182.472 358.437 182.472 358.713H183.472ZM182.472 355.71C182.472 355.986 182.695 356.21 182.972 356.21C183.248 356.21 183.472 355.986 183.472 355.71H182.472ZM183.493 354.768C183.52 354.493 183.319 354.248 183.044 354.222C182.769 354.195 182.524 354.396 182.498 354.671L183.493 354.768ZM183.72 351.72C183.545 351.933 183.576 352.248 183.789 352.424C184.002 352.599 184.317 352.568 184.493 352.355L183.72 351.72ZM185.117 351.731C185.33 351.555 185.361 351.24 185.186 351.027C185.011 350.813 184.695 350.783 184.482 350.958L185.117 351.731ZM187.433 349.736C187.158 349.762 186.957 350.007 186.984 350.282C187.01 350.556 187.255 350.758 187.53 350.731L187.433 349.736ZM188.477 350.709C188.753 350.709 188.977 350.486 188.977 350.209C188.977 349.933 188.753 349.709 188.477 349.709V350.709ZM191.508 349.709C191.232 349.709 191.008 349.933 191.008 350.209C191.008 350.486 191.232 350.709 191.508 350.709V349.709ZM192.519 350.709C192.795 350.709 193.019 350.486 193.019 350.209C193.019 349.933 192.795 349.709 192.519 349.709V350.709ZM195.55 349.709C195.274 349.709 195.05 349.933 195.05 350.209C195.05 350.486 195.274 350.709 195.55 350.709V349.709ZM196.561 350.709C196.837 350.709 197.061 350.486 197.061 350.209C197.061 349.933 196.837 349.709 196.561 349.709V350.709ZM199.592 349.709C199.316 349.709 199.092 349.933 199.092 350.209C199.092 350.486 199.316 350.709 199.592 350.709V349.709ZM200.603 350.709C200.879 350.709 201.103 350.486 201.103 350.209C201.103 349.933 200.879 349.709 200.603 349.709V350.709ZM203.634 349.709C203.358 349.709 203.134 349.933 203.134 350.209C203.134 350.486 203.358 350.709 203.634 350.709V349.709ZM204.644 350.709C204.921 350.709 205.144 350.486 205.144 350.209C205.144 349.933 204.921 349.709 204.644 349.709V350.709ZM207.676 349.709C207.4 349.709 207.176 349.933 207.176 350.209C207.176 350.486 207.4 350.709 207.676 350.709V349.709ZM208.686 350.709C208.962 350.709 209.186 350.486 209.186 350.209C209.186 349.933 208.962 349.709 208.686 349.709V350.709ZM211.718 349.709C211.442 349.709 211.218 349.933 211.218 350.209C211.218 350.486 211.442 350.709 211.718 350.709V349.709ZM212.728 350.709C213.004 350.709 213.228 350.486 213.228 350.209C213.228 349.933 213.004 349.709 212.728 349.709V350.709ZM215.76 349.709C215.484 349.709 215.26 349.933 215.26 350.209C215.26 350.486 215.484 350.709 215.76 350.709V349.709ZM216.77 350.709C217.046 350.709 217.27 350.486 217.27 350.209C217.27 349.933 217.046 349.709 216.77 349.709V350.709ZM219.802 349.709C219.525 349.709 219.302 349.933 219.302 350.209C219.302 350.486 219.525 350.709 219.802 350.709V349.709ZM220.812 350.709C221.088 350.709 221.312 350.486 221.312 350.209C221.312 349.933 221.088 349.709 220.812 349.709V350.709ZM223.843 349.709C223.567 349.709 223.343 349.933 223.343 350.209C223.343 350.486 223.567 350.709 223.843 350.709V349.709ZM224.854 350.709C225.13 350.709 225.354 350.486 225.354 350.209C225.354 349.933 225.13 349.709 224.854 349.709V350.709ZM227.885 349.709C227.609 349.709 227.385 349.933 227.385 350.209C227.385 350.486 227.609 350.709 227.885 350.709V349.709ZM228.896 350.709C229.172 350.709 229.396 350.486 229.396 350.209C229.396 349.933 229.172 349.709 228.896 349.709V350.709ZM231.927 349.709C231.651 349.709 231.427 349.933 231.427 350.209C231.427 350.486 231.651 350.709 231.927 350.709V349.709ZM232.938 350.709C233.214 350.709 233.438 350.486 233.438 350.209C233.438 349.933 233.214 349.709 232.938 349.709V350.709ZM235.969 349.709C235.693 349.709 235.469 349.933 235.469 350.209C235.469 350.486 235.693 350.709 235.969 350.709V349.709ZM236.98 350.709C237.256 350.709 237.48 350.486 237.48 350.209C237.48 349.933 237.256 349.709 236.98 349.709V350.709ZM240.011 349.709C239.735 349.709 239.511 349.933 239.511 350.209C239.511 350.486 239.735 350.709 240.011 350.709V349.709ZM241.022 350.709C241.298 350.709 241.522 350.486 241.522 350.209C241.522 349.933 241.298 349.709 241.022 349.709V350.709ZM244.053 349.709C243.777 349.709 243.553 349.933 243.553 350.209C243.553 350.486 243.777 350.709 244.053 350.709V349.709ZM245.063 350.709C245.34 350.709 245.563 350.486 245.563 350.209C245.563 349.933 245.34 349.709 245.063 349.709V350.709ZM248.095 349.709C247.819 349.709 247.595 349.933 247.595 350.209C247.595 350.486 247.819 350.709 248.095 350.709V349.709ZM249.105 350.709C249.382 350.709 249.605 350.486 249.605 350.209C249.605 349.933 249.382 349.709 249.105 349.709V350.709ZM252.137 349.709C251.861 349.709 251.637 349.933 251.637 350.209C251.637 350.486 251.861 350.709 252.137 350.709V349.709ZM253.147 350.709C253.423 350.709 253.647 350.486 253.647 350.209C253.647 349.933 253.423 349.709 253.147 349.709V350.709ZM256.179 349.709C255.903 349.709 255.679 349.933 255.679 350.209C255.679 350.486 255.903 350.709 256.179 350.709V349.709ZM257.189 350.709C257.465 350.709 257.689 350.486 257.689 350.209C257.689 349.933 257.465 349.709 257.189 349.709V350.709ZM260.221 349.709C259.944 349.709 259.721 349.933 259.721 350.209C259.721 350.486 259.944 350.709 260.221 350.709V349.709ZM261.231 350.709C261.507 350.709 261.731 350.486 261.731 350.209C261.731 349.933 261.507 349.709 261.231 349.709V350.709ZM264.263 349.709C263.986 349.709 263.763 349.933 263.763 350.209C263.763 350.486 263.986 350.709 264.263 350.709V349.709ZM265.273 350.709C265.549 350.709 265.773 350.486 265.773 350.209C265.773 349.933 265.549 349.709 265.273 349.709V350.709ZM268.304 349.709C268.028 349.709 267.804 349.933 267.804 350.209C267.804 350.486 268.028 350.709 268.304 350.709V349.709ZM269.315 350.709C269.591 350.709 269.815 350.486 269.815 350.209C269.815 349.933 269.591 349.709 269.315 349.709V350.709ZM272.346 349.709C272.07 349.709 271.846 349.933 271.846 350.209C271.846 350.486 272.07 350.709 272.346 350.709V349.709ZM273.357 350.709C273.633 350.709 273.857 350.486 273.857 350.209C273.857 349.933 273.633 349.709 273.357 349.709V350.709ZM276.388 349.709C276.112 349.709 275.888 349.933 275.888 350.209C275.888 350.486 276.112 350.709 276.388 350.709V349.709ZM277.399 350.709C277.675 350.709 277.899 350.486 277.899 350.209C277.899 349.933 277.675 349.709 277.399 349.709V350.709ZM280.43 349.709C280.154 349.709 279.93 349.933 279.93 350.209C279.93 350.486 280.154 350.709 280.43 350.709V349.709ZM281.441 350.709C281.717 350.709 281.941 350.486 281.941 350.209C281.941 349.933 281.717 349.709 281.441 349.709V350.709ZM284.472 349.709C284.196 349.709 283.972 349.933 283.972 350.209C283.972 350.486 284.196 350.709 284.472 350.709V349.709ZM285.483 350.709C285.759 350.709 285.983 350.486 285.983 350.209C285.983 349.933 285.759 349.709 285.483 349.709V350.709ZM288.514 349.709C288.238 349.709 288.014 349.933 288.014 350.209C288.014 350.486 288.238 350.709 288.514 350.709V349.709ZM289.524 350.709C289.801 350.709 290.024 350.486 290.024 350.209C290.024 349.933 289.801 349.709 289.524 349.709V350.709ZM292.556 349.709C292.28 349.709 292.056 349.933 292.056 350.209C292.056 350.486 292.28 350.709 292.556 350.709V349.709ZM293.566 350.709C293.842 350.709 294.066 350.486 294.066 350.209C294.066 349.933 293.842 349.709 293.566 349.709V350.709ZM296.598 349.709C296.322 349.709 296.098 349.933 296.098 350.209C296.098 350.486 296.322 350.709 296.598 350.709V349.709ZM297.608 350.709C297.884 350.709 298.108 350.486 298.108 350.209C298.108 349.933 297.884 349.709 297.608 349.709V350.709ZM300.64 349.709C300.364 349.709 300.14 349.933 300.14 350.209C300.14 350.486 300.364 350.709 300.64 350.709V349.709ZM301.65 350.709C301.926 350.709 302.15 350.486 302.15 350.209C302.15 349.933 301.926 349.709 301.65 349.709V350.709ZM304.682 349.709C304.405 349.709 304.182 349.933 304.182 350.209C304.182 350.486 304.405 350.709 304.682 350.709V349.709ZM305.692 350.709C305.968 350.709 306.192 350.486 306.192 350.209C306.192 349.933 305.968 349.709 305.692 349.709V350.709ZM308.724 349.709C308.447 349.709 308.224 349.933 308.224 350.209C308.224 350.486 308.447 350.709 308.724 350.709V349.709ZM309.734 350.709C310.01 350.709 310.234 350.486 310.234 350.209C310.234 349.933 310.01 349.709 309.734 349.709V350.709ZM312.765 349.709C312.489 349.709 312.265 349.933 312.265 350.209C312.265 350.486 312.489 350.709 312.765 350.709V349.709ZM183.472 391.243V390.742H182.472V391.243H183.472ZM183.472 387.74V386.739H182.472V387.74H183.472ZM183.472 383.736V382.735H182.472V383.736H183.472ZM183.472 379.732V378.731H182.472V379.732H183.472ZM183.472 375.728V374.728H182.472V375.728H183.472ZM183.472 371.725V370.724H182.472V371.725H183.472ZM183.472 367.721V366.72H182.472V367.721H183.472ZM183.472 363.717V362.716H182.472V363.717H183.472ZM183.472 359.714V358.713H182.472V359.714H183.472ZM183.472 355.71V355.209H182.472V355.71H183.472ZM183.472 355.209C183.472 355.06 183.479 354.913 183.493 354.768L182.498 354.671C182.48 354.848 182.472 355.028 182.472 355.209H183.472ZM184.493 352.355C184.68 352.127 184.889 351.918 185.117 351.731L184.482 350.958C184.204 351.187 183.949 351.442 183.72 351.72L184.493 352.355ZM187.53 350.731C187.675 350.717 187.822 350.709 187.972 350.709V349.709C187.79 349.709 187.61 349.718 187.433 349.736L187.53 350.731ZM187.972 350.709H188.477V349.709H187.972V350.709ZM191.508 350.709H192.519V349.709H191.508V350.709ZM195.55 350.709H196.561V349.709H195.55V350.709ZM199.592 350.709H200.603V349.709H199.592V350.709ZM203.634 350.709H204.644V349.709H203.634V350.709ZM207.676 350.709H208.686V349.709H207.676V350.709ZM211.718 350.709H212.728V349.709H211.718V350.709ZM215.76 350.709H216.77V349.709H215.76V350.709ZM219.802 350.709H220.812V349.709H219.802V350.709ZM223.843 350.709H224.854V349.709H223.843V350.709ZM227.885 350.709H228.896V349.709H227.885V350.709ZM231.927 350.709H232.938V349.709H231.927V350.709ZM235.969 350.709H236.98V349.709H235.969V350.709ZM240.011 350.709H241.022V349.709H240.011V350.709ZM244.053 350.709H245.063V349.709H244.053V350.709ZM248.095 350.709H249.105V349.709H248.095V350.709ZM252.137 350.709H253.147V349.709H252.137V350.709ZM256.179 350.709H257.189V349.709H256.179V350.709ZM260.221 350.709H261.231V349.709H260.221V350.709ZM264.263 350.709H265.273V349.709H264.263V350.709ZM268.304 350.709H269.315V349.709H268.304V350.709ZM272.346 350.709H273.357V349.709H272.346V350.709ZM276.388 350.709H277.399V349.709H276.388V350.709ZM280.43 350.709H281.441V349.709H280.43V350.709ZM284.472 350.709H285.483V349.709H284.472V350.709ZM288.514 350.709H289.524V349.709H288.514V350.709ZM292.556 350.709H293.566V349.709H292.556V350.709ZM296.598 350.709H297.608V349.709H296.598V350.709ZM300.64 350.709H301.65V349.709H300.64V350.709ZM304.682 350.709H305.692V349.709H304.682V350.709ZM308.724 350.709H309.734V349.709H308.724V350.709Z" fill="#7C3AED"/>
<path d="M419.094 387.644L416.207 392.644H421.98L419.094 387.644ZM391.499 495.406C391.775 495.406 391.999 495.183 391.999 494.906C391.999 494.63 391.775 494.406 391.499 494.406V495.406ZM394.383 494.406C394.107 494.406 393.883 494.63 393.883 494.906C393.883 495.183 394.107 495.406 394.383 495.406V494.406ZM395.345 495.406C395.621 495.406 395.845 495.183 395.845 494.906C395.845 494.63 395.621 494.406 395.345 494.406V495.406ZM398.229 494.406C397.953 494.406 397.729 494.63 397.729 494.906C397.729 495.183 397.953 495.406 398.229 495.406V494.406ZM399.191 495.406C399.467 495.406 399.691 495.183 399.691 494.906C399.691 494.63 399.467 494.406 399.191 494.406V495.406ZM402.075 494.406C401.799 494.406 401.575 494.63 401.575 494.906C401.575 495.183 401.799 495.406 402.075 495.406V494.406ZM403.037 495.406C403.313 495.406 403.537 495.183 403.537 494.906C403.537 494.63 403.313 494.406 403.037 494.406V495.406ZM405.921 494.406C405.645 494.406 405.421 494.63 405.421 494.906C405.421 495.183 405.645 495.406 405.921 495.406V494.406ZM406.883 495.406C407.159 495.406 407.383 495.183 407.383 494.906C407.383 494.63 407.159 494.406 406.883 494.406V495.406ZM409.767 494.406C409.491 494.406 409.267 494.63 409.267 494.906C409.267 495.183 409.491 495.406 409.767 495.406V494.406ZM410.728 495.406C411.005 495.406 411.228 495.183 411.228 494.906C411.228 494.63 411.005 494.406 410.728 494.406V495.406ZM413.613 494.406C413.337 494.406 413.113 494.63 413.113 494.906C413.113 495.183 413.337 495.406 413.613 495.406V494.406ZM414.632 495.38C414.907 495.354 415.108 495.109 415.082 494.834C415.055 494.559 414.81 494.358 414.535 494.385L414.632 495.38ZM416.948 493.385C416.735 493.561 416.704 493.876 416.879 494.089C417.055 494.302 417.37 494.333 417.583 494.158L416.948 493.385ZM418.345 493.396C418.52 493.183 418.49 492.867 418.276 492.692C418.063 492.517 417.748 492.548 417.573 492.761L418.345 493.396ZM418.572 490.348C418.546 490.623 418.747 490.868 419.021 490.894C419.296 490.921 419.541 490.72 419.568 490.445L418.572 490.348ZM419.594 489.415C419.594 489.139 419.37 488.915 419.094 488.915C418.818 488.915 418.594 489.139 418.594 489.415H419.594ZM418.594 486.465C418.594 486.741 418.818 486.965 419.094 486.965C419.37 486.965 419.594 486.741 419.594 486.465H418.594ZM419.594 485.482C419.594 485.205 419.37 484.982 419.094 484.982C418.818 484.982 418.594 485.205 418.594 485.482H419.594ZM418.594 482.532C418.594 482.808 418.818 483.032 419.094 483.032C419.37 483.032 419.594 482.808 419.594 482.532H418.594ZM419.594 481.548C419.594 481.272 419.37 481.048 419.094 481.048C418.818 481.048 418.594 481.272 418.594 481.548H419.594ZM418.594 478.599C418.594 478.875 418.818 479.099 419.094 479.099C419.37 479.099 419.594 478.875 419.594 478.599H418.594ZM419.594 477.615C419.594 477.339 419.37 477.115 419.094 477.115C418.818 477.115 418.594 477.339 418.594 477.615H419.594ZM418.594 474.665C418.594 474.942 418.818 475.165 419.094 475.165C419.37 475.165 419.594 474.942 419.594 474.665H418.594ZM419.594 473.682C419.594 473.406 419.37 473.182 419.094 473.182C418.818 473.182 418.594 473.406 418.594 473.682H419.594ZM418.594 470.732C418.594 471.008 418.818 471.232 419.094 471.232C419.37 471.232 419.594 471.008 419.594 470.732H418.594ZM419.594 469.749C419.594 469.473 419.37 469.249 419.094 469.249C418.818 469.249 418.594 469.473 418.594 469.749H419.594ZM418.594 466.799C418.594 467.075 418.818 467.299 419.094 467.299C419.37 467.299 419.594 467.075 419.594 466.799H418.594ZM419.594 465.816C419.594 465.54 419.37 465.316 419.094 465.316C418.818 465.316 418.594 465.54 418.594 465.816H419.594ZM418.594 462.866C418.594 463.142 418.818 463.366 419.094 463.366C419.37 463.366 419.594 463.142 419.594 462.866H418.594ZM419.594 461.883C419.594 461.606 419.37 461.383 419.094 461.383C418.818 461.383 418.594 461.606 418.594 461.883H419.594ZM418.594 458.933C418.594 459.209 418.818 459.433 419.094 459.433C419.37 459.433 419.594 459.209 419.594 458.933H418.594ZM419.594 457.949C419.594 457.673 419.37 457.449 419.094 457.449C418.818 457.449 418.594 457.673 418.594 457.949H419.594ZM418.594 454.999C418.594 455.276 418.818 455.499 419.094 455.499C419.37 455.499 419.594 455.276 419.594 454.999H418.594ZM419.594 454.016C419.594 453.74 419.37 453.516 419.094 453.516C418.818 453.516 418.594 453.74 418.594 454.016H419.594ZM418.594 451.066C418.594 451.342 418.818 451.566 419.094 451.566C419.37 451.566 419.594 451.342 419.594 451.066H418.594ZM419.594 450.083C419.594 449.807 419.37 449.583 419.094 449.583C418.818 449.583 418.594 449.807 418.594 450.083H419.594ZM418.594 447.133C418.594 447.409 418.818 447.633 419.094 447.633C419.37 447.633 419.594 447.409 419.594 447.133H418.594ZM419.594 446.15C419.594 445.874 419.37 445.65 419.094 445.65C418.818 445.65 418.594 445.874 418.594 446.15H419.594ZM418.594 443.2C418.594 443.476 418.818 443.7 419.094 443.7C419.37 443.7 419.594 443.476 419.594 443.2H418.594ZM419.594 442.217C419.594 441.94 419.37 441.717 419.094 441.717C418.818 441.717 418.594 441.94 418.594 442.217H419.594ZM418.594 439.267C418.594 439.543 418.818 439.767 419.094 439.767C419.37 439.767 419.594 439.543 419.594 439.267H418.594ZM419.594 438.283C419.594 438.007 419.37 437.783 419.094 437.783C418.818 437.783 418.594 438.007 418.594 438.283H419.594ZM418.594 435.334C418.594 435.61 418.818 435.834 419.094 435.834C419.37 435.834 419.594 435.61 419.594 435.334H418.594ZM419.594 434.35C419.594 434.074 419.37 433.85 419.094 433.85C418.818 433.85 418.594 434.074 418.594 434.35H419.594ZM418.594 431.4C418.594 431.677 418.818 431.9 419.094 431.9C419.37 431.9 419.594 431.677 419.594 431.4H418.594ZM419.594 430.417C419.594 430.141 419.37 429.917 419.094 429.917C418.818 429.917 418.594 430.141 418.594 430.417H419.594ZM418.594 427.467C418.594 427.743 418.818 427.967 419.094 427.967C419.37 427.967 419.594 427.743 419.594 427.467H418.594ZM419.594 426.484C419.594 426.208 419.37 425.984 419.094 425.984C418.818 425.984 418.594 426.208 418.594 426.484H419.594ZM418.594 423.534C418.594 423.81 418.818 424.034 419.094 424.034C419.37 424.034 419.594 423.81 419.594 423.534H418.594ZM419.594 422.551C419.594 422.275 419.37 422.051 419.094 422.051C418.818 422.051 418.594 422.275 418.594 422.551H419.594ZM418.594 419.601C418.594 419.877 418.818 420.101 419.094 420.101C419.37 420.101 419.594 419.877 419.594 419.601H418.594ZM419.594 418.618C419.594 418.341 419.37 418.118 419.094 418.118C418.818 418.118 418.594 418.341 418.594 418.618H419.594ZM418.594 415.668C418.594 415.944 418.818 416.168 419.094 416.168C419.37 416.168 419.594 415.944 419.594 415.668H418.594ZM419.594 414.684C419.594 414.408 419.37 414.184 419.094 414.184C418.818 414.184 418.594 414.408 418.594 414.684H419.594ZM418.594 411.734C418.594 412.011 418.818 412.234 419.094 412.234C419.37 412.234 419.594 412.011 419.594 411.734H418.594ZM419.594 410.751C419.594 410.475 419.37 410.251 419.094 410.251C418.818 410.251 418.594 410.475 418.594 410.751H419.594ZM418.594 407.801C418.594 408.077 418.818 408.301 419.094 408.301C419.37 408.301 419.594 408.077 419.594 407.801H418.594ZM419.594 406.818C419.594 406.542 419.37 406.318 419.094 406.318C418.818 406.318 418.594 406.542 418.594 406.818H419.594ZM418.594 403.868C418.594 404.144 418.818 404.368 419.094 404.368C419.37 404.368 419.594 404.144 419.594 403.868H418.594ZM419.594 402.885C419.594 402.609 419.37 402.385 419.094 402.385C418.818 402.385 418.594 402.609 418.594 402.885H419.594ZM418.594 399.935C418.594 400.211 418.818 400.435 419.094 400.435C419.37 400.435 419.594 400.211 419.594 399.935H418.594ZM419.594 398.952C419.594 398.675 419.37 398.452 419.094 398.452C418.818 398.452 418.594 398.675 418.594 398.952H419.594ZM418.594 396.002C418.594 396.278 418.818 396.502 419.094 396.502C419.37 396.502 419.594 396.278 419.594 396.002H418.594ZM419.594 395.018C419.594 394.742 419.37 394.518 419.094 394.518C418.818 394.518 418.594 394.742 418.594 395.018H419.594ZM418.594 392.068C418.594 392.345 418.818 392.568 419.094 392.568C419.37 392.568 419.594 392.345 419.594 392.068H418.594ZM419.594 391.085C419.594 390.809 419.37 390.585 419.094 390.585C418.818 390.585 418.594 390.809 418.594 391.085H419.594ZM418.594 388.135C418.594 388.411 418.818 388.635 419.094 388.635C419.37 388.635 419.594 388.411 419.594 388.135H418.594ZM391.018 495.406H391.499V494.406H391.018V495.406ZM394.383 495.406H395.345V494.406H394.383V495.406ZM398.229 495.406H399.191V494.406H398.229V495.406ZM402.075 495.406H403.037V494.406H402.075V495.406ZM405.921 495.406H406.883V494.406H405.921V495.406ZM409.767 495.406H410.728V494.406H409.767V495.406ZM413.613 495.406H414.094V494.406H413.613V495.406ZM414.094 495.406C414.275 495.406 414.455 495.398 414.632 495.38L414.535 494.385C414.39 494.399 414.243 494.406 414.094 494.406V495.406ZM417.583 494.158C417.861 493.929 418.117 493.674 418.345 493.396L417.573 492.761C417.385 492.989 417.176 493.198 416.948 493.385L417.583 494.158ZM419.568 490.445C419.585 490.268 419.594 490.088 419.594 489.906H418.594C418.594 490.056 418.586 490.203 418.572 490.348L419.568 490.445ZM419.594 489.906V489.415H418.594V489.906H419.594ZM419.594 486.465V485.482H418.594V486.465H419.594ZM419.594 482.532V481.548H418.594V482.532H419.594ZM419.594 478.599V477.615H418.594V478.599H419.594ZM419.594 474.665V473.682H418.594V474.665H419.594ZM419.594 470.732V469.749H418.594V470.732H419.594ZM419.594 466.799V465.816H418.594V466.799H419.594ZM419.594 462.866V461.883H418.594V462.866H419.594ZM419.594 458.933V457.949H418.594V458.933H419.594ZM419.594 454.999V454.016H418.594V454.999H419.594ZM419.594 451.066V450.083H418.594V451.066H419.594ZM419.594 447.133V446.15H418.594V447.133H419.594ZM419.594 443.2V442.217H418.594V443.2H419.594ZM419.594 439.267V438.283H418.594V439.267H419.594ZM419.594 435.334V434.35H418.594V435.334H419.594ZM419.594 431.4V430.417H418.594V431.4H419.594ZM419.594 427.467V426.484H418.594V427.467H419.594ZM419.594 423.534V422.551H418.594V423.534H419.594ZM419.594 419.601V418.618H418.594V419.601H419.594ZM419.594 415.668V414.684H418.594V415.668H419.594ZM419.594 411.734V410.751H418.594V411.734H419.594ZM419.594 407.801V406.818H418.594V407.801H419.594ZM419.594 403.868V402.885H418.594V403.868H419.594ZM419.594 399.935V398.952H418.594V399.935H419.594ZM419.594 396.002V395.018H418.594V396.002H419.594ZM419.594 392.068V391.085H418.594V392.068H419.594Z" fill="#7C3AED"/>
<path d="M471.645 312.056L476.645 314.942V309.169L471.645 312.056ZM472.14 312.556C472.416 312.556 472.64 312.332 472.64 312.056C472.64 311.78 472.416 311.556 472.14 311.556V312.556ZM475.111 311.556C474.835 311.556 474.611 311.78 474.611 312.056C474.611 312.332 474.835 312.556 475.111 312.556V311.556ZM476.101 312.556C476.377 312.556 476.601 312.332 476.601 312.056C476.601 311.78 476.377 311.556 476.101 311.556V312.556ZM479.072 311.556C478.795 311.556 478.572 311.78 478.572 312.056C478.572 312.332 478.795 312.556 479.072 312.556V311.556ZM480.062 312.556C480.338 312.556 480.562 312.332 480.562 312.056C480.562 311.78 480.338 311.556 480.062 311.556V312.556ZM483.032 311.556C482.756 311.556 482.532 311.78 482.532 312.056C482.532 312.332 482.756 312.556 483.032 312.556V311.556ZM484.023 312.556C484.299 312.556 484.523 312.332 484.523 312.056C484.523 311.78 484.299 311.556 484.023 311.556V312.556ZM486.993 311.556C486.717 311.556 486.493 311.78 486.493 312.056C486.493 312.332 486.717 312.556 486.993 312.556V311.556ZM487.983 312.556C488.259 312.556 488.483 312.332 488.483 312.056C488.483 311.78 488.259 311.556 487.983 311.556V312.556ZM490.954 311.556C490.678 311.556 490.454 311.78 490.454 312.056C490.454 312.332 490.678 312.556 490.954 312.556V311.556ZM491.944 312.556C492.22 312.556 492.444 312.332 492.444 312.056C492.444 311.78 492.22 311.556 491.944 311.556V312.556ZM494.915 311.556C494.639 311.556 494.415 311.78 494.415 312.056C494.415 312.332 494.639 312.556 494.915 312.556V311.556ZM495.905 312.556C496.181 312.556 496.405 312.332 496.405 312.056C496.405 311.78 496.181 311.556 495.905 311.556V312.556ZM498.875 311.556C498.599 311.556 498.375 311.78 498.375 312.056C498.375 312.332 498.599 312.556 498.875 312.556V311.556ZM499.866 312.556C500.142 312.556 500.366 312.332 500.366 312.056C500.366 311.78 500.142 311.556 499.866 311.556V312.556ZM502.836 311.556C502.56 311.556 502.336 311.78 502.336 312.056C502.336 312.332 502.56 312.556 502.836 312.556V311.556ZM503.826 312.556C504.103 312.556 504.326 312.332 504.326 312.056C504.326 311.78 504.103 311.556 503.826 311.556V312.556ZM506.797 311.556C506.521 311.556 506.297 311.78 506.297 312.056C506.297 312.332 506.521 312.556 506.797 312.556V311.556ZM507.787 312.556C508.063 312.556 508.287 312.332 508.287 312.056C508.287 311.78 508.063 311.556 507.787 311.556V312.556ZM510.758 311.556C510.482 311.556 510.258 311.78 510.258 312.056C510.258 312.332 510.482 312.556 510.758 312.556V311.556ZM511.748 312.556C512.024 312.556 512.248 312.332 512.248 312.056C512.248 311.78 512.024 311.556 511.748 311.556V312.556ZM514.719 311.556C514.442 311.556 514.219 311.78 514.219 312.056C514.219 312.332 514.442 312.556 514.719 312.556V311.556ZM515.709 312.556C515.985 312.556 516.209 312.332 516.209 312.056C516.209 311.78 515.985 311.556 515.709 311.556V312.556ZM518.679 311.556C518.403 311.556 518.179 311.78 518.179 312.056C518.179 312.332 518.403 312.556 518.679 312.556V311.556ZM519.669 312.556C519.946 312.556 520.169 312.332 520.169 312.056C520.169 311.78 519.946 311.556 519.669 311.556V312.556ZM522.64 311.556C522.364 311.556 522.14 311.78 522.14 312.056C522.14 312.332 522.364 312.556 522.64 312.556V311.556ZM523.63 312.556C523.906 312.556 524.13 312.332 524.13 312.056C524.13 311.78 523.906 311.556 523.63 311.556V312.556ZM526.601 311.556C526.325 311.556 526.101 311.78 526.101 312.056C526.101 312.332 526.325 312.556 526.601 312.556V311.556ZM527.591 312.556C527.867 312.556 528.091 312.332 528.091 312.056C528.091 311.78 527.867 311.556 527.591 311.556V312.556ZM530.562 311.556C530.285 311.556 530.062 311.78 530.062 312.056C530.062 312.332 530.285 312.556 530.562 312.556V311.556ZM531.552 312.556C531.828 312.556 532.052 312.332 532.052 312.056C532.052 311.78 531.828 311.556 531.552 311.556V312.556ZM534.522 311.556C534.246 311.556 534.022 311.78 534.022 312.056C534.022 312.332 534.246 312.556 534.522 312.556V311.556ZM535.513 312.556C535.789 312.556 536.013 312.332 536.013 312.056C536.013 311.78 535.789 311.556 535.513 311.556V312.556ZM538.483 311.556C538.207 311.556 537.983 311.78 537.983 312.056C537.983 312.332 538.207 312.556 538.483 312.556V311.556ZM539.473 312.556C539.749 312.556 539.973 312.332 539.973 312.056C539.973 311.78 539.749 311.556 539.473 311.556V312.556ZM542.444 311.556C542.168 311.556 541.944 311.78 541.944 312.056C541.944 312.332 542.168 312.556 542.444 312.556V311.556ZM543.434 312.556C543.71 312.556 543.934 312.332 543.934 312.056C543.934 311.78 543.71 311.556 543.434 311.556V312.556ZM546.405 311.556C546.128 311.556 545.905 311.78 545.905 312.056C545.905 312.332 546.128 312.556 546.405 312.556V311.556ZM547.395 312.556C547.671 312.556 547.895 312.332 547.895 312.056C547.895 311.78 547.671 311.556 547.395 311.556V312.556ZM550.365 311.556C550.089 311.556 549.865 311.78 549.865 312.056C549.865 312.332 550.089 312.556 550.365 312.556V311.556ZM551.356 312.556C551.632 312.556 551.856 312.332 551.856 312.056C551.856 311.78 551.632 311.556 551.356 311.556V312.556ZM554.326 311.556C554.05 311.556 553.826 311.78 553.826 312.056C553.826 312.332 554.05 312.556 554.326 312.556V311.556ZM555.316 312.556C555.592 312.556 555.816 312.332 555.816 312.056C555.816 311.78 555.592 311.556 555.316 311.556V312.556ZM558.287 311.556C558.011 311.556 557.787 311.78 557.787 312.056C557.787 312.332 558.011 312.556 558.287 312.556V311.556ZM559.277 312.556C559.553 312.556 559.777 312.332 559.777 312.056C559.777 311.78 559.553 311.556 559.277 311.556V312.556ZM562.248 311.556C561.972 311.556 561.748 311.78 561.748 312.056C561.748 312.332 561.972 312.556 562.248 312.556V311.556ZM563.238 312.556C563.514 312.556 563.738 312.332 563.738 312.056C563.738 311.78 563.514 311.556 563.238 311.556V312.556ZM566.208 311.556C565.932 311.556 565.708 311.78 565.708 312.056C565.708 312.332 565.932 312.556 566.208 312.556V311.556ZM567.199 312.556C567.475 312.556 567.699 312.332 567.699 312.056C567.699 311.78 567.475 311.556 567.199 311.556V312.556ZM570.169 311.556C569.893 311.556 569.669 311.78 569.669 312.056C569.669 312.332 569.893 312.556 570.169 312.556V311.556ZM571.159 312.556C571.436 312.556 571.659 312.332 571.659 312.056C571.659 311.78 571.436 311.556 571.159 311.556V312.556ZM574.13 311.556C573.854 311.556 573.63 311.78 573.63 312.056C573.63 312.332 573.854 312.556 574.13 312.556V311.556ZM575.12 312.556C575.396 312.556 575.62 312.332 575.62 312.056C575.62 311.78 575.396 311.556 575.12 311.556V312.556ZM578.091 311.556C577.815 311.556 577.591 311.78 577.591 312.056C577.591 312.332 577.815 312.556 578.091 312.556V311.556ZM579.081 312.556C579.357 312.556 579.581 312.332 579.581 312.056C579.581 311.78 579.357 311.556 579.081 311.556V312.556ZM582.051 311.556C581.775 311.556 581.551 311.78 581.551 312.056C581.551 312.332 581.775 312.556 582.051 312.556V311.556ZM582.988 312.577C583.263 312.604 583.508 312.403 583.535 312.128C583.561 311.853 583.36 311.608 583.085 311.582L582.988 312.577ZM586.036 312.804C585.823 312.629 585.508 312.66 585.332 312.873C585.157 313.086 585.188 313.401 585.401 313.577L586.036 312.804ZM586.025 314.201C586.201 314.414 586.516 314.445 586.729 314.27C586.943 314.095 586.973 313.78 586.798 313.566L586.025 314.201ZM588.021 316.517C587.994 316.242 587.749 316.041 587.474 316.068C587.2 316.094 586.998 316.339 587.025 316.614L588.021 316.517ZM587.047 317.538C587.047 317.814 587.27 318.038 587.547 318.038C587.823 318.038 588.047 317.814 588.047 317.538H587.047ZM588.047 320.433C588.047 320.156 587.823 319.933 587.547 319.933C587.27 319.933 587.047 320.156 587.047 320.433H588.047ZM587.047 321.397C587.047 321.674 587.27 321.897 587.547 321.897C587.823 321.897 588.047 321.674 588.047 321.397H587.047ZM588.047 324.292C588.047 324.016 587.823 323.792 587.547 323.792C587.27 323.792 587.047 324.016 587.047 324.292H588.047ZM587.047 325.257C587.047 325.533 587.27 325.757 587.547 325.757C587.823 325.757 588.047 325.533 588.047 325.257H587.047ZM588.047 328.151C588.047 327.875 587.823 327.651 587.547 327.651C587.27 327.651 587.047 327.875 587.047 328.151H588.047ZM587.047 329.116C587.047 329.392 587.27 329.616 587.547 329.616C587.823 329.616 588.047 329.392 588.047 329.116H587.047ZM588.047 332.011C588.047 331.734 587.823 331.511 587.547 331.511C587.27 331.511 587.047 331.734 587.047 332.011H588.047ZM587.047 332.975C587.047 333.252 587.27 333.475 587.547 333.475C587.823 333.475 588.047 333.252 588.047 332.975H587.047ZM588.047 335.87C588.047 335.594 587.823 335.37 587.547 335.37C587.27 335.37 587.047 335.594 587.047 335.87H588.047ZM587.047 336.835C587.047 337.111 587.27 337.335 587.547 337.335C587.823 337.335 588.047 337.111 588.047 336.835H587.047ZM588.047 339.729C588.047 339.453 587.823 339.229 587.547 339.229C587.27 339.229 587.047 339.453 587.047 339.729H588.047ZM587.047 340.694C587.047 340.97 587.27 341.194 587.547 341.194C587.823 341.194 588.047 340.97 588.047 340.694H587.047ZM588.047 343.589C588.047 343.312 587.823 343.089 587.547 343.089C587.27 343.089 587.047 343.312 587.047 343.589H588.047ZM587.047 344.553C587.047 344.829 587.27 345.053 587.547 345.053C587.823 345.053 588.047 344.829 588.047 344.553H587.047ZM588.047 347.448C588.047 347.172 587.823 346.948 587.547 346.948C587.27 346.948 587.047 347.172 587.047 347.448H588.047ZM587.047 348.413C587.047 348.689 587.27 348.913 587.547 348.913C587.823 348.913 588.047 348.689 588.047 348.413H587.047ZM588.047 351.307C588.047 351.031 587.823 350.807 587.547 350.807C587.27 350.807 587.047 351.031 587.047 351.307H588.047ZM587.047 352.272C587.047 352.548 587.27 352.772 587.547 352.772C587.823 352.772 588.047 352.548 588.047 352.272H587.047ZM588.047 355.166C588.047 354.89 587.823 354.666 587.547 354.666C587.27 354.666 587.047 354.89 587.047 355.166H588.047ZM587.047 356.131C587.047 356.407 587.27 356.631 587.547 356.631C587.823 356.631 588.047 356.407 588.047 356.131H587.047ZM588.047 359.026C588.047 358.75 587.823 358.526 587.547 358.526C587.27 358.526 587.047 358.75 587.047 359.026H588.047ZM587.047 359.991C587.047 360.267 587.27 360.491 587.547 360.491C587.823 360.491 588.047 360.267 588.047 359.991H587.047ZM588.047 362.885C588.047 362.609 587.823 362.385 587.547 362.385C587.27 362.385 587.047 362.609 587.047 362.885H588.047ZM587.047 363.85C587.047 364.126 587.27 364.35 587.547 364.35C587.823 364.35 588.047 364.126 588.047 363.85H587.047ZM588.047 366.744C588.047 366.468 587.823 366.244 587.547 366.244C587.27 366.244 587.047 366.468 587.047 366.744H588.047ZM587.047 367.709C587.047 367.985 587.27 368.209 587.547 368.209C587.823 368.209 588.047 367.985 588.047 367.709H587.047ZM588.047 370.604C588.047 370.328 587.823 370.104 587.547 370.104C587.27 370.104 587.047 370.328 587.047 370.604H588.047ZM475.111 312.556H476.101V311.556H475.111V312.556ZM479.072 312.556H480.062V311.556H479.072V312.556ZM483.032 312.556H484.023V311.556H483.032V312.556ZM486.993 312.556H487.983V311.556H486.993V312.556ZM490.954 312.556H491.944V311.556H490.954V312.556ZM494.915 312.556H495.905V311.556H494.915V312.556ZM498.875 312.556H499.866V311.556H498.875V312.556ZM502.836 312.556H503.826V311.556H502.836V312.556ZM506.797 312.556H507.787V311.556H506.797V312.556ZM510.758 312.556H511.748V311.556H510.758V312.556ZM514.719 312.556H515.709V311.556H514.719V312.556ZM518.679 312.556H519.669V311.556H518.679V312.556ZM522.64 312.556H523.63V311.556H522.64V312.556ZM526.601 312.556H527.591V311.556H526.601V312.556ZM530.562 312.556H531.552V311.556H530.562V312.556ZM534.522 312.556H535.513V311.556H534.522V312.556ZM538.483 312.556H539.473V311.556H538.483V312.556ZM542.444 312.556H543.434V311.556H542.444V312.556ZM546.405 312.556H547.395V311.556H546.405V312.556ZM550.365 312.556H551.356V311.556H550.365V312.556ZM554.326 312.556H555.316V311.556H554.326V312.556ZM558.287 312.556H559.277V311.556H558.287V312.556ZM562.248 312.556H563.238V311.556H562.248V312.556ZM566.208 312.556H567.199V311.556H566.208V312.556ZM570.169 312.556H571.159V311.556H570.169V312.556ZM574.13 312.556H575.12V311.556H574.13V312.556ZM578.091 312.556H579.081V311.556H578.091V312.556ZM582.051 312.556H582.547V311.556H582.051V312.556ZM582.547 312.556C582.696 312.556 582.843 312.563 582.988 312.577L583.085 311.582C582.908 311.564 582.728 311.556 582.547 311.556V312.556ZM585.401 313.577C585.629 313.764 585.838 313.973 586.025 314.201L586.798 313.566C586.57 313.288 586.314 313.033 586.036 312.804L585.401 313.577ZM587.025 316.614C587.039 316.759 587.047 316.906 587.047 317.056H588.047C588.047 316.874 588.038 316.694 588.021 316.517L587.025 316.614ZM587.047 317.056V317.538H588.047V317.056H587.047ZM587.047 320.433V321.397H588.047V320.433H587.047ZM587.047 324.292V325.257H588.047V324.292H587.047ZM587.047 328.151V329.116H588.047V328.151H587.047ZM587.047 332.011V332.975H588.047V332.011H587.047ZM587.047 335.87V336.835H588.047V335.87H587.047ZM587.047 339.729V340.694H588.047V339.729H587.047ZM587.047 343.589V344.553H588.047V343.589H587.047ZM587.047 347.448V348.413H588.047V347.448H587.047ZM587.047 351.307V352.272H588.047V351.307H587.047ZM587.047 355.166V356.131H588.047V355.166H587.047ZM587.047 359.026V359.991H588.047V359.026H587.047ZM587.047 362.885V363.85H588.047V362.885H587.047ZM587.047 366.744V367.709H588.047V366.744H587.047ZM587.047 370.604V371.086H588.047V370.604H587.047Z" fill="#7C3AED"/>
<path d="M468.766 281.101L473.766 283.987V278.214L468.766 281.101ZM469.261 281.601C469.537 281.601 469.761 281.377 469.761 281.101C469.761 280.825 469.537 280.601 469.261 280.601V281.601ZM472.231 280.601C471.955 280.601 471.731 280.825 471.731 281.101C471.731 281.377 471.955 281.601 472.231 281.601V280.601ZM473.221 281.601C473.497 281.601 473.721 281.377 473.721 281.101C473.721 280.825 473.497 280.601 473.221 280.601V281.601ZM476.192 280.601C475.916 280.601 475.692 280.825 475.692 281.101C475.692 281.377 475.916 281.601 476.192 281.601V280.601ZM477.182 281.601C477.458 281.601 477.682 281.377 477.682 281.101C477.682 280.825 477.458 280.601 477.182 280.601V281.601ZM480.152 280.601C479.876 280.601 479.652 280.825 479.652 281.101C479.652 281.377 479.876 281.601 480.152 281.601V280.601ZM481.142 281.601C481.418 281.601 481.642 281.377 481.642 281.101C481.642 280.825 481.418 280.601 481.142 280.601V281.601ZM484.113 280.601C483.837 280.601 483.613 280.825 483.613 281.101C483.613 281.377 483.837 281.601 484.113 281.601V280.601ZM485.103 281.601C485.379 281.601 485.603 281.377 485.603 281.101C485.603 280.825 485.379 280.601 485.103 280.601V281.601ZM488.073 280.601C487.797 280.601 487.573 280.825 487.573 281.101C487.573 281.377 487.797 281.601 488.073 281.601V280.601ZM489.063 281.601C489.34 281.601 489.563 281.377 489.563 281.101C489.563 280.825 489.34 280.601 489.063 280.601V281.601ZM492.034 280.601C491.758 280.601 491.534 280.825 491.534 281.101C491.534 281.377 491.758 281.601 492.034 281.601V280.601ZM493.024 281.601C493.3 281.601 493.524 281.377 493.524 281.101C493.524 280.825 493.3 280.601 493.024 280.601V281.601ZM495.994 280.601C495.718 280.601 495.494 280.825 495.494 281.101C495.494 281.377 495.718 281.601 495.994 281.601V280.601ZM496.984 281.601C497.261 281.601 497.484 281.377 497.484 281.101C497.484 280.825 497.261 280.601 496.984 280.601V281.601ZM499.955 280.601C499.679 280.601 499.455 280.825 499.455 281.101C499.455 281.377 499.679 281.601 499.955 281.601V280.601ZM500.945 281.601C501.221 281.601 501.445 281.377 501.445 281.101C501.445 280.825 501.221 280.601 500.945 280.601V281.601ZM503.915 280.601C503.639 280.601 503.415 280.825 503.415 281.101C503.415 281.377 503.639 281.601 503.915 281.601V280.601ZM504.905 281.601C505.182 281.601 505.405 281.377 505.405 281.101C505.405 280.825 505.182 280.601 504.905 280.601V281.601ZM507.876 280.601C507.6 280.601 507.376 280.825 507.376 281.101C507.376 281.377 507.6 281.601 507.876 281.601V280.601ZM508.866 281.601C509.142 281.601 509.366 281.377 509.366 281.101C509.366 280.825 509.142 280.601 508.866 280.601V281.601ZM511.836 280.601C511.56 280.601 511.336 280.825 511.336 281.101C511.336 281.377 511.56 281.601 511.836 281.601V280.601ZM512.826 281.601C513.103 281.601 513.326 281.377 513.326 281.101C513.326 280.825 513.103 280.601 512.826 280.601V281.601ZM515.797 280.601C515.521 280.601 515.297 280.825 515.297 281.101C515.297 281.377 515.521 281.601 515.797 281.601V280.601ZM516.787 281.601C517.063 281.601 517.287 281.377 517.287 281.101C517.287 280.825 517.063 280.601 516.787 280.601V281.601ZM519.757 280.601C519.481 280.601 519.257 280.825 519.257 281.101C519.257 281.377 519.481 281.601 519.757 281.601V280.601ZM520.747 281.601C521.024 281.601 521.247 281.377 521.247 281.101C521.247 280.825 521.024 280.601 520.747 280.601V281.601ZM523.718 280.601C523.442 280.601 523.218 280.825 523.218 281.101C523.218 281.377 523.442 281.601 523.718 281.601V280.601ZM524.708 281.601C524.984 281.601 525.208 281.377 525.208 281.101C525.208 280.825 524.984 280.601 524.708 280.601V281.601ZM527.678 280.601C527.402 280.601 527.178 280.825 527.178 281.101C527.178 281.377 527.402 281.601 527.678 281.601V280.601ZM528.669 281.601C528.945 281.601 529.169 281.377 529.169 281.101C529.169 280.825 528.945 280.601 528.669 280.601V281.601ZM531.639 280.601C531.363 280.601 531.139 280.825 531.139 281.101C531.139 281.377 531.363 281.601 531.639 281.601V280.601ZM532.629 281.601C532.905 281.601 533.129 281.377 533.129 281.101C533.129 280.825 532.905 280.601 532.629 280.601V281.601ZM535.599 280.601C535.323 280.601 535.099 280.825 535.099 281.101C535.099 281.377 535.323 281.601 535.599 281.601V280.601ZM536.59 281.601C536.866 281.601 537.09 281.377 537.09 281.101C537.09 280.825 536.866 280.601 536.59 280.601V281.601ZM539.56 280.601C539.284 280.601 539.06 280.825 539.06 281.101C539.06 281.377 539.284 281.601 539.56 281.601V280.601ZM540.55 281.601C540.826 281.601 541.05 281.377 541.05 281.101C541.05 280.825 540.826 280.601 540.55 280.601V281.601ZM543.52 280.601C543.244 280.601 543.02 280.825 543.02 281.101C543.02 281.377 543.244 281.601 543.52 281.601V280.601ZM544.511 281.601C544.787 281.601 545.011 281.377 545.011 281.101C545.011 280.825 544.787 280.601 544.511 280.601V281.601ZM547.481 280.601C547.205 280.601 546.981 280.825 546.981 281.101C546.981 281.377 547.205 281.601 547.481 281.601V280.601ZM548.471 281.601C548.747 281.601 548.971 281.377 548.971 281.101C548.971 280.825 548.747 280.601 548.471 280.601V281.601ZM551.441 280.601C551.165 280.601 550.941 280.825 550.941 281.101C550.941 281.377 551.165 281.601 551.441 281.601V280.601ZM552.432 281.601C552.708 281.601 552.932 281.377 552.932 281.101C552.932 280.825 552.708 280.601 552.432 280.601V281.601ZM555.402 280.601C555.126 280.601 554.902 280.825 554.902 281.101C554.902 281.377 555.126 281.601 555.402 281.601V280.601ZM556.392 281.601C556.668 281.601 556.892 281.377 556.892 281.101C556.892 280.825 556.668 280.601 556.392 280.601V281.601ZM559.363 280.601C559.086 280.601 558.863 280.825 558.863 281.101C558.863 281.377 559.086 281.601 559.363 281.601V280.601ZM560.353 281.601C560.629 281.601 560.853 281.377 560.853 281.101C560.853 280.825 560.629 280.601 560.353 280.601V281.601ZM563.323 280.601C563.047 280.601 562.823 280.825 562.823 281.101C562.823 281.377 563.047 281.601 563.323 281.601V280.601ZM564.313 281.601C564.589 281.601 564.813 281.377 564.813 281.101C564.813 280.825 564.589 280.601 564.313 280.601V281.601ZM567.284 280.601C567.007 280.601 566.784 280.825 566.784 281.101C566.784 281.377 567.007 281.601 567.284 281.601V280.601ZM568.274 281.601C568.55 281.601 568.774 281.377 568.774 281.101C568.774 280.825 568.55 280.601 568.274 280.601V281.601ZM571.244 280.601C570.968 280.601 570.744 280.825 570.744 281.101C570.744 281.377 570.968 281.601 571.244 281.601V280.601ZM572.234 281.601C572.51 281.601 572.734 281.377 572.734 281.101C572.734 280.825 572.51 280.601 572.234 280.601V281.601ZM575.205 280.601C574.928 280.601 574.705 280.825 574.705 281.101C574.705 281.377 574.928 281.601 575.205 281.601V280.601ZM576.195 281.601C576.471 281.601 576.695 281.377 576.695 281.101C576.695 280.825 576.471 280.601 576.195 280.601V281.601ZM579.165 280.601C578.889 280.601 578.665 280.825 578.665 281.101C578.665 281.377 578.889 281.601 579.165 281.601V280.601ZM580.155 281.601C580.431 281.601 580.655 281.377 580.655 281.101C580.655 280.825 580.431 280.601 580.155 280.601V281.601ZM583.126 280.601C582.849 280.601 582.626 280.825 582.626 281.101C582.626 281.377 582.849 281.601 583.126 281.601V280.601ZM584.116 281.601C584.392 281.601 584.616 281.377 584.616 281.101C584.616 280.825 584.392 280.601 584.116 280.601V281.601ZM587.086 280.601C586.81 280.601 586.586 280.825 586.586 281.101C586.586 281.377 586.81 281.601 587.086 281.601V280.601ZM588.076 281.601C588.352 281.601 588.576 281.377 588.576 281.101C588.576 280.825 588.352 280.601 588.076 280.601V281.601ZM591.047 280.601C590.771 280.601 590.547 280.825 590.547 281.101C590.547 281.377 590.771 281.601 591.047 281.601V280.601ZM592.037 281.601C592.313 281.601 592.537 281.377 592.537 281.101C592.537 280.825 592.313 280.601 592.037 280.601V281.601ZM595.007 280.601C594.731 280.601 594.507 280.825 594.507 281.101C594.507 281.377 594.731 281.601 595.007 281.601V280.601ZM595.997 281.601C596.273 281.601 596.497 281.377 596.497 281.101C596.497 280.825 596.273 280.601 595.997 280.601V281.601ZM598.968 280.601C598.692 280.601 598.468 280.825 598.468 281.101C598.468 281.377 598.692 281.601 598.968 281.601V280.601ZM599.958 281.601C600.234 281.601 600.458 281.377 600.458 281.101C600.458 280.825 600.234 280.601 599.958 280.601V281.601ZM602.928 280.601C602.652 280.601 602.428 280.825 602.428 281.101C602.428 281.377 602.652 281.601 602.928 281.601V280.601ZM603.962 281.575C604.237 281.548 604.438 281.303 604.411 281.029C604.384 280.754 604.14 280.553 603.865 280.579L603.962 281.575ZM606.278 279.58C606.065 279.755 606.034 280.07 606.209 280.283C606.384 280.497 606.699 280.528 606.913 280.352L606.278 279.58ZM607.675 279.59C607.85 279.377 607.819 279.062 607.606 278.886C607.393 278.711 607.077 278.742 606.902 278.955L607.675 279.59ZM607.902 276.543C607.875 276.817 608.076 277.062 608.351 277.089C608.626 277.115 608.87 276.914 608.897 276.639L607.902 276.543ZM608.923 275.624C608.923 275.348 608.699 275.124 608.423 275.124C608.147 275.124 607.923 275.348 607.923 275.624H608.923ZM607.923 272.766C607.923 273.042 608.147 273.266 608.423 273.266C608.699 273.266 608.923 273.042 608.923 272.766H607.923ZM608.923 271.814C608.923 271.538 608.699 271.314 608.423 271.314C608.147 271.314 607.923 271.538 607.923 271.814H608.923ZM607.923 268.956C607.923 269.232 608.147 269.456 608.423 269.456C608.699 269.456 608.923 269.232 608.923 268.956H607.923ZM608.923 268.003C608.923 267.727 608.699 267.503 608.423 267.503C608.147 267.503 607.923 267.727 607.923 268.003H608.923ZM607.923 265.145C607.923 265.421 608.147 265.645 608.423 265.645C608.699 265.645 608.923 265.421 608.923 265.145H607.923ZM608.923 264.192C608.923 263.916 608.699 263.692 608.423 263.692C608.147 263.692 607.923 263.916 607.923 264.192H608.923ZM607.923 261.334C607.923 261.61 608.147 261.834 608.423 261.834C608.699 261.834 608.923 261.61 608.923 261.334H607.923ZM608.923 260.382C608.923 260.105 608.699 259.882 608.423 259.882C608.147 259.882 607.923 260.105 607.923 260.382H608.923ZM607.923 257.524C607.923 257.8 608.147 258.024 608.423 258.024C608.699 258.024 608.923 257.8 608.923 257.524H607.923ZM608.923 256.571C608.923 256.295 608.699 256.071 608.423 256.071C608.147 256.071 607.923 256.295 607.923 256.571H608.923ZM607.923 253.713C607.923 253.989 608.147 254.213 608.423 254.213C608.699 254.213 608.923 253.989 608.923 253.713H607.923ZM608.923 252.76C608.923 252.484 608.699 252.26 608.423 252.26C608.147 252.26 607.923 252.484 607.923 252.76H608.923ZM607.923 249.902C607.923 250.178 608.147 250.402 608.423 250.402C608.699 250.402 608.923 250.178 608.923 249.902H607.923ZM472.231 281.601H473.221V280.601H472.231V281.601ZM476.192 281.601H477.182V280.601H476.192V281.601ZM480.152 281.601H481.142V280.601H480.152V281.601ZM484.113 281.601H485.103V280.601H484.113V281.601ZM488.073 281.601H489.063V280.601H488.073V281.601ZM492.034 281.601H493.024V280.601H492.034V281.601ZM495.994 281.601H496.984V280.601H495.994V281.601ZM499.955 281.601H500.945V280.601H499.955V281.601ZM503.915 281.601H504.905V280.601H503.915V281.601ZM507.876 281.601H508.866V280.601H507.876V281.601ZM511.836 281.601H512.826V280.601H511.836V281.601ZM515.797 281.601H516.787V280.601H515.797V281.601ZM519.757 281.601H520.747V280.601H519.757V281.601ZM523.718 281.601H524.708V280.601H523.718V281.601ZM527.678 281.601H528.669V280.601H527.678V281.601ZM531.639 281.601H532.629V280.601H531.639V281.601ZM535.599 281.601H536.59V280.601H535.599V281.601ZM539.56 281.601H540.55V280.601H539.56V281.601ZM543.52 281.601H544.511V280.601H543.52V281.601ZM547.481 281.601H548.471V280.601H547.481V281.601ZM551.441 281.601H552.432V280.601H551.441V281.601ZM555.402 281.601H556.392V280.601H555.402V281.601ZM559.363 281.601H560.353V280.601H559.363V281.601ZM563.323 281.601H564.313V280.601H563.323V281.601ZM567.284 281.601H568.274V280.601H567.284V281.601ZM571.244 281.601H572.234V280.601H571.244V281.601ZM575.205 281.601H576.195V280.601H575.205V281.601ZM579.165 281.601H580.155V280.601H579.165V281.601ZM583.126 281.601H584.116V280.601H583.126V281.601ZM587.086 281.601H588.076V280.601H587.086V281.601ZM591.047 281.601H592.037V280.601H591.047V281.601ZM595.007 281.601H595.997V280.601H595.007V281.601ZM598.968 281.601H599.958V280.601H598.968V281.601ZM602.928 281.601H603.423V280.601H602.928V281.601ZM603.423 281.601C603.605 281.601 603.785 281.592 603.962 281.575L603.865 280.579C603.72 280.593 603.573 280.601 603.423 280.601V281.601ZM606.913 280.352C607.191 280.124 607.446 279.868 607.675 279.59L606.902 278.955C606.715 279.183 606.506 279.392 606.278 279.58L606.913 280.352ZM608.897 276.639C608.914 276.462 608.923 276.282 608.923 276.101H607.923C607.923 276.25 607.916 276.397 607.902 276.543L608.897 276.639ZM608.923 276.101V275.624H607.923V276.101H608.923ZM608.923 272.766V271.814H607.923V272.766H608.923ZM608.923 268.956V268.003H607.923V268.956H608.923ZM608.923 265.145V264.192H607.923V265.145H608.923ZM608.923 261.334V260.382H607.923V261.334H608.923ZM608.923 257.524V256.571H607.923V257.524H608.923ZM608.923 253.713V252.76H607.923V253.713H608.923ZM608.923 249.902V249.426H607.923V249.902H608.923Z" fill="#7C3AED"/>
<circle cx="352.144" cy="124.885" r="42.4732" fill="#1E3A8A"/>
<path d="M352.145 95.8242L378.945 113.906H325.344L352.145 95.8242Z" fill="#DBEAFE"/>
<path fill-rule="evenodd" clip-rule="evenodd" d="M372.153 111.564L352.145 97.8086L332.138 111.564H372.153ZM368.401 110.313L352.145 99.0593L335.889 110.313H368.401Z" fill="#4F82E3"/>
<path d="M324.052 113.906H380.236V117.135H324.052V113.906Z" fill="#4F82E3"/>
<path d="M325.344 138.769H378.945V141.998H325.344V138.769Z" fill="#4F82E3"/>
<path d="M323.084 141.998H381.205V145.227H323.084V141.998Z" fill="#3766BF"/>
<path d="M328.25 117.135H334.708V119.395H328.25V117.135Z" fill="#3766BF"/>
<path d="M354.728 117.135H361.509V119.395H354.728V117.135Z" fill="#3766BF"/>
<path d="M341.812 117.135H347.946V119.395H341.812V117.135Z" fill="#3766BF"/>
<path d="M367.965 117.135H374.746V119.395H367.965V117.135Z" fill="#3766BF"/>
<path d="M329.542 119.395H333.417V138.769H329.542V119.395Z" fill="#DBEAFE"/>
<path d="M342.78 119.395H346.655V138.769H342.78V119.395Z" fill="#DBEAFE"/>
<path d="M356.02 119.395H359.894V138.769H356.02V119.395Z" fill="#DBEAFE"/>
<path d="M369.257 119.395H373.132V138.769H369.257V119.395Z" fill="#DBEAFE"/>
<path d="M352.145 108.74C353.929 108.74 355.374 107.222 355.374 105.349C355.374 103.477 353.929 101.959 352.145 101.959C350.362 101.959 348.916 103.477 348.916 105.349C348.916 107.222 350.362 108.74 352.145 108.74Z" fill="#3766BF"/>
<circle cx="174.333" cy="203.352" r="33.1147" fill="#1E3A8A"/>
<path d="M174.333 180.694L195.228 194.792H153.438L174.333 180.694Z" fill="#DBEAFE"/>
<path fill-rule="evenodd" clip-rule="evenodd" d="M189.933 192.966L174.334 182.242L158.735 192.966H189.933ZM187.008 191.991L174.334 183.217L161.66 191.991H187.008Z" fill="#4F82E3"/>
<path d="M152.431 194.793H196.235V197.31H152.431V194.793Z" fill="#4F82E3"/>
<path d="M153.438 214.177H195.228V216.694H153.438V214.177Z" fill="#4F82E3"/>
<path d="M151.676 216.694H196.991V219.212H151.676V216.694Z" fill="#3766BF"/>
<path d="M155.704 197.31H160.739V199.072H155.704V197.31Z" fill="#3766BF"/>
<path d="M176.347 197.31H181.634V199.072H176.347V197.31Z" fill="#3766BF"/>
<path d="M166.277 197.31H171.06V199.072H166.277V197.31Z" fill="#3766BF"/>
<path d="M186.668 197.31H191.955V199.072H186.668V197.31Z" fill="#3766BF"/>
<path d="M156.711 199.072H159.732V214.177H156.711V199.072Z" fill="#DBEAFE"/>
<path d="M167.032 199.072H170.053V214.177H167.032V199.072Z" fill="#DBEAFE"/>
<path d="M177.354 199.072H180.375V214.177H177.354V199.072Z" fill="#DBEAFE"/>
<path d="M187.676 199.072H190.697V214.177H187.676V199.072Z" fill="#DBEAFE"/>
<path d="M174.334 190.764C175.724 190.764 176.851 189.581 176.851 188.121C176.851 186.661 175.724 185.478 174.334 185.478C172.943 185.478 171.816 186.661 171.816 188.121C171.816 189.581 172.943 190.764 174.334 190.764Z" fill="#3766BF"/>
<circle cx="182.972" cy="440.914" r="48.9521" fill="#1E3A8A"/>
<path d="M182.972 407.419L213.861 428.26H152.084L182.972 407.419Z" fill="#DBEAFE"/>
<path fill-rule="evenodd" clip-rule="evenodd" d="M206.032 425.561L182.972 409.707L159.913 425.561H206.032ZM201.708 424.12L182.972 411.149L164.237 424.12H201.708Z" fill="#4F82E3"/>
<path d="M150.595 428.261H215.349V431.983H150.595V428.261Z" fill="#4F82E3"/>
<path d="M152.084 456.915H213.861V460.637H152.084V456.915Z" fill="#4F82E3"/>
<path d="M149.478 460.637H216.465V464.358H149.478V460.637Z" fill="#3766BF"/>
<path d="M155.433 431.981H162.876V434.586H155.433V431.981Z" fill="#3766BF"/>
<path d="M185.949 431.982H193.764V434.587H185.949V431.982Z" fill="#3766BF"/>
<path d="M171.063 431.982H178.134V434.587H171.063V431.982Z" fill="#3766BF"/>
<path d="M201.205 431.982H209.02V434.587H201.205V431.982Z" fill="#3766BF"/>
<path d="M156.922 434.586H161.387V456.915H156.922V434.586Z" fill="#DBEAFE"/>
<path d="M172.178 434.586H176.644V456.915H172.178V434.586Z" fill="#DBEAFE"/>
<path d="M187.437 434.586H191.903V456.915H187.437V434.586Z" fill="#DBEAFE"/>
<path d="M202.696 434.586H207.161V456.915H202.696V434.586Z" fill="#DBEAFE"/>
<path d="M182.972 422.306C185.028 422.306 186.694 420.556 186.694 418.398C186.694 416.24 185.028 414.49 182.972 414.49C180.917 414.49 179.251 416.24 179.251 418.398C179.251 420.556 180.917 422.306 182.972 422.306Z" fill="#3766BF"/>
<circle cx="354.304" cy="499.944" r="38.8738" fill="#1E3A8A"/>
<path d="M354.304 473.346L378.833 489.896H329.775L354.304 473.346Z" fill="#DBEAFE"/>
<path fill-rule="evenodd" clip-rule="evenodd" d="M372.617 487.753L354.305 475.163L335.993 487.753H372.617ZM369.183 486.608L354.305 476.308L339.426 486.608H369.183Z" fill="#4F82E3"/>
<path d="M328.593 489.896H380.015V492.852H328.593V489.896Z" fill="#4F82E3"/>
<path d="M329.775 512.652H378.833V515.607H329.775V512.652Z" fill="#4F82E3"/>
<path d="M327.706 515.607H380.902V518.563H327.706V515.607Z" fill="#3766BF"/>
<path d="M332.435 492.851H338.346V494.92H332.435V492.851Z" fill="#3766BF"/>
<path d="M356.669 492.851H362.875V494.92H356.669V492.851Z" fill="#3766BF"/>
<path d="M344.848 492.851H350.463V494.92H344.848V492.851Z" fill="#3766BF"/>
<path d="M368.784 492.851H374.99V494.92H368.784V492.851Z" fill="#3766BF"/>
<path d="M333.617 494.919H337.163V512.651H333.617V494.919Z" fill="#DBEAFE"/>
<path d="M345.733 494.919H349.279V512.651H345.733V494.919Z" fill="#DBEAFE"/>
<path d="M357.85 494.919H361.397V512.651H357.85V494.919Z" fill="#DBEAFE"/>
<path d="M369.967 494.919H373.513V512.651H369.967V494.919Z" fill="#DBEAFE"/>
<path d="M354.305 485.167C355.937 485.167 357.26 483.778 357.26 482.064C357.26 480.35 355.937 478.961 354.305 478.961C352.673 478.961 351.349 480.35 351.349 482.064C351.349 483.778 352.673 485.167 354.305 485.167Z" fill="#3766BF"/>
<circle cx="586.107" cy="410.679" r="38.8738" fill="#1E3A8A"/>
<path d="M586.107 384.081L610.636 400.631H561.578L586.107 384.081Z" fill="#DBEAFE"/>
<path fill-rule="evenodd" clip-rule="evenodd" d="M604.419 398.487L586.108 385.898L567.796 398.487H604.419ZM600.986 397.343L586.108 387.043L571.229 397.343H600.986Z" fill="#4F82E3"/>
<path d="M560.395 400.632H611.818V403.587H560.395V400.632Z" fill="#4F82E3"/>
<path d="M561.578 423.387H610.636V426.342H561.578V423.387Z" fill="#4F82E3"/>
<path d="M559.509 426.342H612.705V429.297H559.509V426.342Z" fill="#3766BF"/>
<path d="M564.238 403.586H570.148V405.655H564.238V403.586Z" fill="#3766BF"/>
<path d="M588.472 403.586H594.678V405.655H588.472V403.586Z" fill="#3766BF"/>
<path d="M576.65 403.586H582.265V405.655H576.65V403.586Z" fill="#3766BF"/>
<path d="M600.587 403.586H606.793V405.655H600.587V403.586Z" fill="#3766BF"/>
<path d="M565.42 405.654H568.966V423.386H565.42V405.654Z" fill="#DBEAFE"/>
<path d="M577.536 405.654H581.082V423.386H577.536V405.654Z" fill="#DBEAFE"/>
<path d="M589.653 405.654H593.199V423.386H589.653V405.654Z" fill="#DBEAFE"/>
<path d="M601.77 405.654H605.316V423.386H601.77V405.654Z" fill="#DBEAFE"/>
<path d="M586.108 395.902C587.74 395.902 589.063 394.513 589.063 392.799C589.063 391.086 587.74 389.696 586.108 389.696C584.475 389.696 583.152 391.086 583.152 392.799C583.152 394.513 584.475 395.902 586.108 395.902Z" fill="#3766BF"/>
<circle cx="595.465" cy="199.752" r="49.672" fill="#1E3A8A"/>
<path d="M595.465 165.767L626.808 186.914H564.123L595.465 165.767Z" fill="#DBEAFE"/>
<path fill-rule="evenodd" clip-rule="evenodd" d="M618.864 184.174L595.466 168.087L572.067 184.174H618.864ZM614.477 182.712L595.466 169.55L576.454 182.712H614.477Z" fill="#4F82E3"/>
<path d="M562.612 186.914H628.318V190.691H562.612V186.914Z" fill="#4F82E3"/>
<path d="M564.123 215.99H626.808V219.766H564.123V215.99Z" fill="#4F82E3"/>
<path d="M561.479 219.766H629.451V223.543H561.479V219.766Z" fill="#3766BF"/>
<path d="M567.521 190.69H575.073V193.333H567.521V190.69Z" fill="#3766BF"/>
<path d="M598.486 190.69H606.416V193.334H598.486V190.69Z" fill="#3766BF"/>
<path d="M583.381 190.69H590.556V193.333H583.381V190.69Z" fill="#3766BF"/>
<path d="M613.966 190.69H621.896V193.334H613.966V190.69Z" fill="#3766BF"/>
<path d="M569.032 193.333H573.563V215.99H569.032V193.333Z" fill="#DBEAFE"/>
<path d="M584.513 193.333H589.044V215.99H584.513V193.333Z" fill="#DBEAFE"/>
<path d="M599.996 193.333H604.527V215.99H599.996V193.333Z" fill="#DBEAFE"/>
<path d="M615.479 193.333H620.01V215.99H615.479V193.333Z" fill="#DBEAFE"/>
<path d="M595.466 180.871C597.551 180.871 599.242 179.096 599.242 176.906C599.242 174.716 597.551 172.941 595.466 172.941C593.38 172.941 591.689 174.716 591.689 176.906C591.689 179.096 593.38 180.871 595.466 180.871Z" fill="#3766BF"/>
<defs>
<filter id="filter0_d_2010_49" x="291.593" y="216.629" width="188.772" height="188.772" filterUnits="userSpaceOnUse" color-interpolation-filters="sRGB">
<feFlood flood-opacity="0" result="BackgroundImageFix"/>
<feColorMatrix in="SourceAlpha" type="matrix" values="0 0 0 0 0 0 0 0 0 0 0 0 0 0 0 0 0 0 127 0" result="hardAlpha"/>
<feOffset dy="4"/>
<feGaussianBlur stdDeviation="4"/>
<feComposite in2="hardAlpha" operator="out"/>
<feColorMatrix type="matrix" values="0 0 0 0 0 0 0 0 0 0 0 0 0 0 0 0 0 0 0.1 0"/>
<feBlend mode="normal" in2="BackgroundImageFix" result="effect1_dropShadow_2010_49"/>
<feBlend mode="normal" in="SourceGraphic" in2="effect1_dropShadow_2010_49" result="shape"/>
</filter>
<clipPath id="clip0_2010_49">
<rect width="43.7714" height="32.8267" fill="white" transform="translate(400.044 265.262)"/>
</clipPath>
</defs>
</svg>
